<?xml version="1.0" standalone="no"?>
<!DOCTYPE svg PUBLIC "-//W3C//DTD SVG 20010904//EN"
 "http://www.w3.org/TR/2001/REC-SVG-20010904/DTD/svg10.dtd">
<svg version="1.0" xmlns="http://www.w3.org/2000/svg"
 width="810.000000pt" height="810.000000pt" viewBox="0 0 810.000000 810.000000"
 preserveAspectRatio="xMidYMid meet">
<metadata>
Created by potrace 1.11, written by Peter Selinger 2001-2013
</metadata>
<g transform="translate(0.000000,810.000000) scale(0.100000,-0.100000)"
fill="#000000" stroke="none">
<path d="M5324 7613 c6 -143 4 -188 -14 -298 -24 -155 -25 -174 -8 -157 7 7
22 12 34 12 42 0 54 -11 55 -49 l1 -36 14 45 13 45 -5 -77 c-4 -57 -2 -78 6
-78 7 0 14 9 17 21 5 16 8 18 15 7 7 -10 11 -9 19 5 10 18 11 18 25 0 13 -16
14 -11 8 42 l-7 59 26 -29 26 -30 1 72 c0 70 -19 186 -39 234 -5 13 -31 90
-57 172 -27 81 -51 147 -55 147 -4 0 -9 -12 -12 -27 l-4 -28 -8 33 c-4 17 -11
32 -15 32 -4 0 -11 11 -14 25 -4 14 -11 25 -18 25 -8 0 -9 -46 -4 -167z"/>
<path d="M5241 7063 c-12 -21 -40 -60 -62 -88 -52 -65 -93 -134 -85 -143 4 -3
21 -1 38 6 22 8 34 8 38 1 4 -5 13 -9 20 -7 25 6 42 -71 36 -163 -6 -76 -4
-89 14 -112 16 -20 18 -30 10 -52 -5 -14 -10 -41 -9 -58 1 -25 6 -15 27 46 17
52 22 81 15 85 -7 5 -6 23 3 57 7 28 11 58 8 67 -3 9 4 47 15 84 30 95 27 136
-7 102 -18 -18 -24 -5 -27 70 -1 39 -5 75 -9 80 -4 6 -4 23 0 37 9 35 1 31
-25 -12z"/>
<path d="M1605 6919 c5 -8 26 -35 47 -60 58 -71 52 -90 -13 -38 -30 23 -39 27
-39 15 0 -30 52 -120 110 -192 68 -83 99 -142 81 -153 -15 -10 9 -41 104 -141
63 -66 104 -123 75 -105 -6 3 -13 -1 -16 -9 -6 -17 39 -82 115 -166 23 -25 37
-46 31 -48 -19 -7 20 -61 65 -92 39 -27 122 -49 109 -29 -2 4 1 19 8 34 9 20
17 25 32 21 12 -3 32 -9 45 -12 17 -5 22 -4 17 4 -4 7 -1 12 8 12 8 0 18 -4
21 -10 3 -5 11 -10 16 -10 6 0 3 7 -5 16 -20 20 -20 28 -1 20 8 -3 15 -1 15 4
0 6 16 8 41 4 33 -6 41 -4 37 7 -2 7 -20 17 -39 22 -36 8 -79 51 -79 78 0 10
-9 17 -22 17 -30 0 -118 40 -118 53 0 5 10 7 23 4 52 -13 128 -22 132 -15 7
11 -6 20 -30 20 -12 0 -30 9 -40 20 -11 12 -31 20 -50 20 -21 0 -51 14 -88 39
-31 22 -59 36 -62 30 -4 -5 -1 -9 6 -9 7 0 9 -3 6 -6 -9 -9 -57 24 -57 38 0 6
-11 26 -26 45 l-25 33 24 0 c13 0 46 -11 73 -25 38 -19 63 -25 112 -24 34 1
62 6 62 11 0 6 8 7 18 3 9 -4 37 -14 61 -21 35 -11 41 -11 32 0 -6 7 -7 16 -3
21 4 4 -3 5 -14 1 -14 -4 -23 -2 -27 7 -5 12 1 13 44 8 4 -1 9 -10 12 -21 3
-11 13 -20 23 -20 30 0 104 -34 104 -47 0 -7 4 -13 9 -13 5 0 12 6 14 13 4 8
8 9 14 1 14 -19 43 -25 43 -9 0 18 23 10 66 -22 30 -22 112 -34 100 -14 -3 5
1 12 10 15 14 5 101 -37 114 -55 8 -11 58 -29 78 -29 21 1 -14 32 -77 70 -23
13 -48 37 -56 52 -13 27 -12 28 12 26 14 -2 28 -9 31 -16 9 -24 212 -112 259
-112 14 0 41 -11 59 -25 18 -14 36 -25 40 -25 14 0 -21 32 -55 50 -20 10 -46
32 -59 49 -14 19 -31 31 -45 31 -14 0 -32 12 -45 30 -12 16 -49 48 -82 70 -33
22 -60 44 -60 49 0 10 -61 37 -120 52 -25 7 -90 13 -145 14 -55 1 -116 5 -135
8 -25 6 -30 5 -15 -2 11 -5 14 -10 8 -10 -7 -1 -34 10 -60 23 -27 14 -79 34
-118 44 -38 11 -79 23 -90 27 -17 6 -17 4 4 -14 13 -12 22 -23 20 -26 -2 -2
-70 33 -149 77 -80 44 -168 91 -197 104 -28 12 -66 36 -85 51 -18 16 -60 48
-93 72 -33 24 -71 54 -85 66 -31 28 -77 44 -65 24z m1013 -501 c-20 -7 -33 -5
-54 9 l-27 17 24 7 c14 3 37 -1 54 -9 l30 -15 -27 -9z m-352 -489 c-9 -13 -16
-17 -16 -10 0 8 -6 11 -15 7 -23 -8 -18 11 7 28 30 21 45 5 24 -25z"/>
<path d="M4881 6562 c-61 -91 -101 -157 -101 -164 0 -17 33 -6 58 19 24 24 45
32 94 34 22 0 106 -68 114 -93 3 -10 10 -18 16 -18 7 0 9 -16 5 -45 -4 -27 -3
-45 3 -45 6 0 10 11 10 24 0 14 7 31 15 40 30 30 24 118 -11 153 -22 22 -25
30 -16 44 9 15 5 26 -25 61 -32 39 -40 43 -81 43 -43 1 -46 -1 -81 -53z"/>
<path d="M4252 6475 c-29 -7 -88 -28 -130 -48 -42 -20 -93 -42 -112 -50 -19
-8 -72 -43 -117 -76 l-83 -62 0 -73 c0 -41 9 -127 21 -193 30 -172 33 -203 20
-203 -6 0 -11 9 -11 19 0 11 -4 22 -9 25 -8 6 -21 -86 -21 -155 0 -28 -7 -45
-28 -66 -32 -31 -112 -77 -120 -68 -3 3 -3 6 -1 8 37 25 99 81 95 85 -3 3 -14
-2 -24 -11 -35 -32 -78 -40 -134 -27 -45 11 -49 14 -34 25 14 11 4 14 -63 20
-49 4 -85 12 -92 21 -6 8 -17 14 -24 14 -7 0 -19 7 -26 16 -11 14 -10 18 6 31
19 14 18 15 -12 8 -18 -3 -34 -2 -38 4 -3 6 -21 11 -38 11 -18 0 -39 4 -47 10
-11 7 -8 11 15 21 l30 12 -25 7 c-14 5 -47 9 -75 10 -27 1 -66 7 -85 15 -35
13 -35 13 -10 22 l24 10 -21 12 c-12 6 -33 11 -46 11 -34 0 -88 20 -81 31 8
13 2 12 -51 -16 l-49 -24 -18 31 c-11 17 -17 37 -14 44 4 11 -3 13 -37 8 -23
-4 -49 -13 -58 -20 -22 -19 -28 -17 -22 6 5 18 0 20 -36 20 -22 0 -41 4 -41 8
0 11 -101 35 -109 26 -10 -9 31 -34 57 -34 13 0 20 -4 17 -10 -4 -6 -10 -8
-15 -5 -4 3 -27 -6 -51 -20 -27 -15 -47 -21 -54 -15 -13 11 -55 2 -55 -11 0
-12 67 -11 109 1 l34 10 -26 -28 c-15 -16 -27 -36 -27 -45 0 -24 -13 -21 -50
9 -22 19 -34 24 -42 16 -12 -12 -2 -33 15 -31 34 4 40 -1 25 -18 -8 -10 -23
-37 -33 -61 -14 -32 -16 -45 -7 -54 14 -14 16 -48 2 -48 -5 0 -25 14 -45 31
-20 18 -38 30 -40 27 -4 -4 14 -40 40 -80 12 -19 135 -35 135 -18 0 6 8 10 18
7 9 -2 32 5 50 15 17 11 32 15 32 9 0 -5 -8 -15 -17 -20 -16 -9 -14 -10 9 -11
15 0 39 -5 54 -10 25 -10 26 -12 10 -29 -9 -9 -16 -24 -16 -32 0 -8 -5 -20
-12 -27 -9 -9 -7 -17 8 -33 l19 -21 -35 6 -35 7 35 -22 c34 -21 91 -93 106
-134 4 -11 15 -31 25 -45 10 -14 20 -36 24 -48 6 -21 4 -23 -22 -21 -38 3 -64
-10 -61 -30 2 -11 -3 -15 -18 -14 -17 2 -20 -2 -16 -22 2 -14 8 -25 13 -25 5
0 9 -4 9 -10 0 -21 -18 -9 -33 23 -29 59 -66 86 -138 96 -40 5 -85 5 -115 0
-102 -19 -104 -20 -104 -7 0 8 16 14 42 15 23 2 44 7 48 12 3 6 20 9 38 9 18
-1 35 2 39 5 3 4 -19 7 -49 7 -36 0 -58 -5 -61 -12 -4 -10 -6 -10 -6 -1 -1 9
-8 10 -23 4 -44 -18 -63 -24 -80 -26 -10 -1 -27 -10 -38 -20 -28 -26 -68 -111
-59 -126 7 -12 -48 -100 -67 -106 -23 -8 6 176 43 272 3 9 -18 18 -69 30 -78
17 -149 39 -179 56 -24 12 -24 2 -1 -25 17 -20 17 -20 -8 -4 -14 9 -24 23 -24
30 1 8 -7 20 -17 27 -15 9 -19 8 -19 -1 1 -16 60 -83 80 -91 13 -4 12 -6 -1
-6 -9 -1 -38 20 -64 46 -43 43 -46 51 -43 88 3 28 -4 59 -23 105 -41 97 -90
250 -87 267 4 21 85 -85 159 -208 32 -55 59 -104 59 -109 0 -5 12 -22 26 -37
14 -15 33 -41 42 -58 14 -28 14 -29 -1 -17 -9 8 -19 23 -23 34 -4 15 -8 17
-14 8 -6 -9 -14 -1 -29 28 -11 22 -34 50 -50 61 -24 18 -28 27 -26 56 3 28 -3
43 -24 68 -15 18 -35 43 -44 57 -31 45 -18 6 18 -52 19 -32 31 -58 26 -58 -4
0 -14 12 -21 28 -11 21 -14 23 -17 10 -5 -21 86 -220 98 -213 4 3 9 1 11 -4 1
-5 10 -11 18 -13 8 -2 17 -6 20 -10 3 -4 21 -10 40 -13 19 -3 40 -11 47 -17 8
-6 15 -9 17 -7 8 8 -107 205 -164 280 -33 43 -86 125 -119 181 -32 57 -73 121
-90 143 -17 22 -40 59 -51 82 -18 37 -60 179 -62 211 -1 6 -5 12 -9 12 -4 0
-10 13 -14 30 -9 41 -25 48 -20 8 3 -18 9 -87 15 -153 5 -66 18 -178 27 -248
15 -122 17 -127 29 -98 7 17 13 34 13 36 1 11 26 33 34 28 4 -2 7 -19 7 -37 0
-19 9 -85 20 -147 11 -63 19 -127 19 -144 l-1 -30 -10 30 c-12 33 -27 47 -45
40 -6 -2 -14 6 -16 18 -3 14 -5 9 -6 -13 0 -19 13 -116 29 -215 16 -99 30
-184 30 -188 0 -4 14 -13 30 -19 l30 -10 -26 -21 c-25 -19 -26 -24 -21 -86 l5
-66 -33 37 c-38 40 -51 80 -61 181 -4 37 -10 70 -15 72 -4 3 -27 -13 -51 -35
-24 -22 -48 -40 -54 -40 -14 0 -146 45 -172 59 -11 6 -129 42 -262 80 -133 38
-250 77 -259 85 -10 9 -22 16 -27 16 -6 0 -18 6 -28 13 -16 12 -16 13 6 14 12
1 25 -1 28 -5 5 -8 103 -52 114 -52 3 0 3 7 -1 16 -4 12 0 14 21 8 20 -5 26
-2 26 10 0 24 34 38 65 26 14 -5 34 -10 43 -9 9 0 -17 11 -58 25 -80 25 -119
32 -60 9 19 -7 29 -14 21 -14 -8 -1 -22 -7 -30 -15 -21 -19 -57 -25 -54 -9 2
7 0 12 -5 12 -21 -4 -64 2 -59 7 4 4 -8 14 -26 23 -23 11 -32 23 -31 39 1 12
-3 22 -8 22 -6 0 -7 -8 -4 -17 5 -12 -2 -9 -17 8 -14 14 -47 31 -73 38 -27 7
-75 21 -107 31 -31 11 -55 15 -52 9 8 -12 -1 -11 -28 2 -19 9 -18 7 3 -10 16
-12 29 -16 35 -10 5 5 14 9 20 9 5 0 4 -4 -4 -9 -18 -12 -11 -19 97 -95 45
-31 82 -59 82 -62 0 -8 -29 10 -194 121 -152 101 -197 124 -145 71 13 -14 85
-89 159 -168 156 -165 402 -400 575 -549 66 -57 126 -110 134 -117 36 -35 56
-42 93 -31 36 9 198 -3 221 -18 8 -5 -48 -48 -63 -48 -3 0 -11 -4 -18 -9 -9
-5 -25 2 -47 24 -42 41 -54 39 -209 -29 -244 -106 -839 -394 -843 -408 -3 -7
6 -15 19 -17 89 -20 936 -46 1030 -32 36 5 62 20 113 62 47 38 75 54 96 54 21
0 29 -5 29 -18 0 -30 56 -109 101 -142 41 -29 45 -30 151 -30 59 0 108 4 108
9 0 4 22 11 49 14 27 3 59 12 70 19 17 10 24 10 39 0 40 -29 100 -52 137 -52
49 0 85 23 127 80 42 57 52 151 20 190 -19 24 -19 27 -4 53 9 15 22 25 28 23
6 -2 30 12 53 32 37 33 44 47 65 127 15 57 31 94 42 100 10 5 42 35 72 65 55
55 82 102 82 140 0 26 18 26 28 -1 9 -22 114 -65 133 -53 5 3 16 0 24 -6 8 -6
23 -9 34 -5 15 4 125 -39 148 -60 2 -1 -8 -29 -21 -62 -14 -33 -28 -83 -32
-111 -6 -45 -10 -52 -34 -57 -26 -6 -73 -54 -98 -101 -10 -20 -6 -26 44 -68
60 -49 68 -52 108 -36 23 8 31 4 70 -34 25 -24 59 -49 76 -56 29 -12 31 -16
25 -44 -4 -17 -9 -76 -12 -131 -4 -84 -2 -108 15 -150 11 -28 18 -62 15 -77
-3 -14 0 -35 6 -46 10 -18 6 -23 -29 -43 -32 -18 -44 -33 -60 -77 -17 -44 -18
-57 -8 -63 18 -12 78 -11 78 1 0 10 79 54 86 48 9 -10 -57 -76 -73 -73 -10 2
-38 6 -62 9 -39 4 -42 3 -29 -10 8 -8 39 -18 70 -21 l54 -5 42 52 c23 29 42
59 42 66 0 8 4 14 9 14 4 0 11 -30 14 -67 3 -38 24 -125 46 -194 22 -70 43
-142 46 -162 7 -33 5 -35 -27 -42 -46 -10 -99 -38 -127 -69 -28 -30 -24 -76
11 -113 17 -19 19 -25 8 -38 -11 -13 -11 -23 0 -54 11 -35 10 -44 -9 -83 -11
-25 -21 -54 -21 -65 0 -16 -10 -25 -37 -33 -44 -14 -79 -43 -99 -82 -20 -38
-18 -40 21 -24 19 8 35 11 35 5 0 -5 16 -3 35 5 48 20 45 3 -5 -44 -37 -34
-44 -37 -85 -32 -44 5 -63 -9 -29 -22 52 -20 148 22 160 70 6 25 34 34 34 12
0 -54 -25 -196 -36 -209 -22 -24 -16 -34 7 -13 16 14 21 15 17 4 -7 -21 -69
-62 -86 -55 -8 3 -40 -16 -73 -42 -53 -43 -57 -48 -35 -51 13 -2 55 1 92 6 91
13 94 9 94 -124 0 -124 32 -319 93 -574 40 -164 61 -285 58 -330 0 -8 -5 -64
-10 -125 -5 -60 -7 -113 -5 -116 2 -4 50 -12 106 -19 102 -13 266 -8 339 9 26
6 41 4 54 -5 10 -8 25 -14 33 -14 9 0 30 -11 48 -25 35 -27 54 -32 54 -15 0 6
20 -1 43 -15 52 -30 76 -34 56 -8 -12 15 -12 16 1 8 8 -4 25 -17 36 -27 21
-19 21 -19 27 3 6 21 8 22 24 8 33 -28 96 -60 108 -55 11 4 30 -6 104 -56 14
-10 35 -22 46 -27 11 -5 30 -19 42 -30 12 -12 28 -21 36 -21 7 0 28 -20 46
-45 18 -25 39 -45 47 -45 8 0 14 -7 14 -16 0 -9 13 -28 28 -42 45 -42 74 -138
93 -297 13 -120 16 -135 23 -142 9 -9 -65 -29 -207 -55 -108 -20 -126 -21
-205 -9 -47 7 -91 16 -97 21 -12 10 -76 22 -115 22 -14 -1 -63 8 -108 19 -53
13 -88 17 -95 11 -14 -11 -124 0 -153 15 -23 12 -94 27 -113 24 -7 -1 -24 8
-37 20 -13 12 -24 19 -24 15 0 -11 -36 26 -48 50 -6 12 -36 38 -67 58 -40 27
-62 51 -80 87 -14 27 -31 49 -39 49 -7 0 -16 13 -19 29 -8 38 -30 58 -77 71
-40 11 -90 5 -90 -11 0 -19 -27 -8 -40 16 -7 14 -18 25 -24 25 -6 0 -5 4 2 9
10 6 11 26 6 86 -6 71 -10 82 -43 118 -34 38 -37 39 -82 33 -46 -6 -47 -6 -54
24 -8 37 -50 69 -128 98 -94 35 -140 27 -150 -26 -3 -16 -14 -38 -24 -48 -10
-9 -17 -20 -16 -23 1 -3 -10 -4 -24 -3 -36 5 -118 -19 -101 -29 20 -13 4 -20
-58 -26 -33 -3 -66 -11 -74 -17 -8 -6 -33 -20 -55 -31 -47 -24 -87 -63 -78
-78 3 -5 1 -7 -5 -4 -5 4 -26 -16 -46 -44 -30 -41 -41 -50 -63 -47 -17 2 -27
10 -29 23 -1 11 -7 72 -14 135 -7 63 -22 147 -34 186 l-23 71 21 39 c12 21 21
40 22 41 0 1 16 -2 35 -8 43 -14 140 -106 196 -188 24 -33 47 -61 52 -61 19 0
19 64 1 162 -30 156 -65 247 -132 340 -24 34 -40 86 -28 93 5 3 11 1 14 -4 3
-5 30 -12 59 -16 73 -10 130 -66 187 -186 23 -49 46 -89 50 -89 20 0 35 138
25 227 -4 37 -10 62 -12 55 -3 -6 -9 -10 -14 -6 -5 3 -9 -2 -9 -10 0 -29 -14
-21 -97 54 -12 11 -29 20 -38 20 -48 0 -149 92 -143 131 3 21 7 23 51 20 40
-2 47 0 48 16 1 10 2 23 4 28 1 6 3 13 3 17 1 4 12 4 24 -1 23 -8 41 -34 77
-106 11 -22 32 -53 46 -68 15 -16 31 -40 35 -55 7 -24 8 -25 9 -5 1 35 -44
128 -91 187 -37 46 -73 100 -86 129 -7 16 36 -13 71 -46 19 -17 58 -60 87 -95
29 -34 55 -60 58 -57 3 2 7 25 9 51 4 43 -25 161 -46 189 -5 6 -21 48 -36 95
-16 47 -37 93 -48 103 -11 10 -16 21 -12 25 4 4 10 1 12 -6 3 -6 9 -10 14 -6
5 3 9 -1 9 -8 0 -7 12 -19 28 -25 15 -7 48 -34 75 -59 26 -26 50 -44 53 -41 7
7 -13 107 -26 127 -7 12 -12 11 -31 -5 -12 -11 -19 -15 -16 -8 9 14 -30 43
-49 36 -7 -3 -20 2 -29 10 -8 9 -40 30 -70 47 -30 17 -63 42 -73 54 -14 18
-25 22 -50 18 -27 -4 -32 -1 -32 17 0 12 6 21 16 21 8 0 13 4 10 9 -8 12 18
21 64 21 23 0 40 -5 43 -14 3 -7 17 -16 30 -18 19 -4 27 0 30 14 3 11 15 22
26 25 19 5 19 7 6 34 -25 46 -89 105 -140 128 -27 12 -53 20 -59 18 -20 -8
-46 13 -46 36 0 31 18 47 52 47 30 0 35 9 16 28 -6 6 -11 32 -9 58 5 94 -36
68 -80 -52 -18 -48 -39 -72 -39 -44 0 5 -9 33 -20 62 -18 50 -62 109 -136 185
-39 41 -50 76 -28 97 16 16 8 21 -20 10 -9 -3 -16 -14 -17 -23 0 -10 -4 -7
-11 9 -7 16 -12 20 -15 12 -3 -8 1 -25 8 -40 10 -17 14 -61 14 -136 0 -92 -4
-122 -24 -179 -14 -37 -30 -67 -36 -67 -6 0 -24 36 -39 80 -16 44 -33 83 -38
86 -5 3 -13 17 -19 30 -5 14 -22 30 -39 36 -17 5 -35 19 -41 29 -5 10 -19 19
-31 19 -16 0 -18 3 -9 14 10 11 8 15 -6 20 -10 3 -1 4 20 3 30 -2 35 -1 25 9
-7 7 -29 17 -48 21 -19 5 -36 16 -36 24 -1 8 -3 17 -4 22 -5 16 -8 28 -9 47 0
11 -6 20 -12 20 -6 0 -8 -9 -4 -22 6 -19 5 -21 -6 -10 -21 19 -26 14 -24 -25
1 -21 -2 -44 -8 -50 -8 -12 -1 -119 23 -328 4 -38 4 -77 -1 -85 -7 -12 -8 -10
-9 8 0 12 -4 22 -9 22 -5 0 -23 21 -39 48 -47 76 -108 138 -169 172 -32 18
-74 46 -94 62 l-37 30 25 49 c15 27 24 52 21 54 -3 3 -13 -13 -23 -35 -16 -35
-22 -40 -51 -40 -43 0 -64 -9 -64 -27 0 -13 -3 -13 -15 -3 -9 7 -19 10 -22 6
-14 -14 23 -26 69 -22 74 6 108 -30 127 -135 6 -30 14 -74 20 -99 15 -66 23
-170 12 -145 -5 11 -10 35 -10 53 -1 20 -5 31 -11 27 -13 -8 -11 -126 3 -143
7 -9 7 -16 -1 -24 -14 -14 -16 -32 -3 -24 5 3 8 -5 8 -19 0 -22 -1 -21 -24 12
-14 20 -36 61 -49 91 -13 29 -28 51 -34 47 -6 -4 -7 1 -3 12 3 10 3 15 -1 11
-4 -3 -35 9 -69 27 -34 18 -81 36 -104 40 -47 7 -73 37 -73 84 0 27 -24 50
-38 36 -3 -3 -1 -5 4 -5 13 0 4 -83 -10 -92 -6 -4 -16 -6 -22 -4 -7 3 -11 -8
-10 -27 0 -27 -4 -32 -33 -40 -24 -6 -37 -5 -45 4 -8 9 -8 10 2 5 8 -5 12 0
12 12 0 13 -13 26 -35 36 -39 19 -42 26 -19 61 19 30 23 93 5 104 -17 11 -41
59 -41 83 0 10 7 32 15 48 20 39 5 38 -28 -1 -28 -34 -27 -37 9 -117 28 -61
29 -66 10 -59 -10 4 -13 1 -9 -9 3 -8 -1 -14 -10 -14 -9 0 -28 -10 -44 -23
-47 -39 -123 -71 -136 -58 -8 8 -7 11 3 11 8 0 38 30 65 67 28 36 56 72 63 79
20 21 27 75 11 85 -8 5 -9 9 -3 9 7 0 9 11 6 25 l-4 25 -23 -25 c-16 -16 -25
-20 -28 -12 -4 9 -7 9 -14 0 -6 -8 -14 -9 -23 -3 -8 6 -29 10 -47 10 -25 0
-31 4 -27 15 4 8 11 15 16 15 5 0 22 9 36 20 l26 21 21 -28 22 -27 24 25 c13
14 39 36 57 48 20 14 30 27 25 32 -11 11 -103 0 -103 -12 0 -5 -9 -9 -21 -9
-11 0 -17 5 -14 10 3 6 4 10 1 10 -18 0 -194 -90 -261 -134 -76 -50 -151 -125
-143 -145 1 -5 26 -3 53 5 74 19 175 28 175 16 0 -5 -15 -27 -32 -47 -34 -37
-70 -58 -123 -70 -16 -3 -47 -17 -67 -30 -22 -15 -38 -20 -40 -13 -5 15 -117
-101 -134 -139 -8 -17 -25 -49 -39 -70 -16 -23 -24 -45 -21 -59 4 -14 -2 -28
-19 -44 l-25 -23 1 -416 c0 -229 3 -409 6 -401 2 8 7 22 9 30 4 13 6 13 14 0
6 -10 3 -26 -10 -48 -19 -32 -20 -56 -20 -643 l0 -609 3234 0 3234 0 -8 33
c-30 116 -59 181 -91 198 -13 6 -19 7 -15 1 7 -12 -68 -27 -84 -17 -5 3 -10
12 -10 19 0 15 -23 96 -47 163 -20 60 -67 97 -111 89 -26 -4 -42 0 -60 14 -30
24 -90 26 -117 5 -107 -81 -187 -135 -202 -135 -10 0 -27 -6 -38 -14 -11 -7
-31 -17 -45 -21 -23 -7 -24 -7 -10 10 14 18 14 18 -10 3 -14 -9 -47 -23 -74
-32 l-48 -17 -25 28 c-58 67 -140 212 -148 264 -6 37 -10 52 -22 84 -6 17 -21
80 -33 140 -29 136 -50 183 -106 235 -56 51 -92 67 -186 80 -183 26 -224 33
-233 44 -5 7 -30 20 -55 29 -46 17 -85 58 -152 160 l-26 41 29 59 c21 40 27
62 20 70 -5 7 -48 41 -95 77 -46 36 -87 72 -90 80 -3 8 -11 23 -18 32 -22 30
-3 29 70 -2 39 -16 73 -30 75 -30 3 0 7 21 11 47 4 27 13 62 20 78 l13 30 24
-45 c21 -40 24 -58 25 -171 0 -111 3 -130 22 -161 12 -19 22 -44 22 -55 0 -21
35 -59 72 -77 16 -8 31 -33 48 -84 14 -39 28 -72 32 -72 11 0 56 82 74 134 9
25 22 46 29 46 14 0 60 -43 82 -78 21 -31 39 -28 52 9 l11 31 75 -64 c100 -83
117 -95 110 -77 -2 8 -1 20 4 27 7 11 16 10 50 -7 51 -27 214 -71 261 -71 19
0 59 -7 88 -14 56 -15 64 -10 32 19 -31 28 -24 35 23 20 23 -8 74 -19 112 -24
39 -5 80 -12 93 -16 18 -6 21 -4 16 9 -5 14 9 16 137 16 79 0 150 4 157 8 7 5
10 16 6 25 -4 12 -1 17 10 17 23 0 174 59 181 71 4 5 -14 6 -42 3 -60 -7 -41
10 32 27 44 11 47 13 25 19 -23 6 -21 8 15 14 49 9 87 24 65 26 -68 8 -112 4
-120 -9 -7 -12 -14 -13 -46 -3 -43 13 -60 8 -23 -7 13 -5 17 -10 9 -11 -13 0
-13 -1 0 -10 8 -5 10 -10 4 -10 -5 0 -15 5 -21 11 -6 6 -34 13 -63 14 -56 4
-82 15 -36 15 23 0 26 3 21 22 -6 16 -4 20 8 15 9 -3 30 1 46 9 32 16 53 38
27 28 -11 -4 -16 0 -16 10 0 9 5 16 12 16 25 0 -2 10 -52 20 -30 6 -57 15 -60
20 -4 6 -33 20 -65 33 -63 24 -78 41 -45 50 11 3 19 11 18 18 -2 7 14 24 34
37 21 14 37 27 35 29 -2 1 -25 -4 -52 -14 -45 -15 -55 -15 -144 2 -92 17 -126
28 -181 60 -19 11 -21 15 -7 15 9 0 25 4 35 9 34 17 84 30 97 25 16 -7 27 9
20 29 -5 10 -16 12 -43 8 -20 -4 -50 -4 -67 -1 -26 5 -30 9 -31 41 -2 30 4 41
29 59 l30 23 -6 -22 c-4 -17 -3 -20 8 -11 7 6 19 8 26 6 8 -2 30 -7 49 -10 27
-5 32 -4 22 6 -7 7 -12 25 -12 40 0 32 -15 36 -42 11 -10 -9 -18 -12 -18 -7 1
18 99 79 122 76 17 -2 28 6 42 28 21 36 71 70 104 70 12 0 22 6 22 14 0 8 15
24 33 35 21 14 25 21 13 19 -10 -2 -21 3 -24 11 -3 8 0 11 6 7 6 -3 14 -1 18
5 5 9 0 10 -17 4 -39 -12 -138 -17 -155 -7 -13 7 -2 14 46 30 34 12 67 19 73
15 5 -3 7 -1 4 4 -4 6 4 13 18 16 14 2 28 0 31 -4 3 -5 10 -9 16 -9 17 0 -26
37 -48 42 -10 2 -18 9 -17 15 3 14 -49 23 -144 26 -40 1 -73 6 -73 10 0 10
-71 -2 -84 -14 -6 -5 -17 -9 -25 -9 -13 1 -12 4 3 15 26 20 12 31 -19 17 -14
-7 -40 -12 -58 -12 -18 0 -48 -4 -67 -9 -19 -5 -47 -12 -62 -15 l-28 -6 41 62
c40 63 39 83 -6 54 -26 -17 -203 -86 -222 -86 -6 0 -13 5 -15 11 -3 8 -20 7
-60 -5 -31 -9 -67 -16 -81 -16 -23 0 -25 4 -30 67 -8 76 -9 153 -3 153 2 0 23
-7 46 -15 23 -8 73 -15 110 -15 88 0 167 38 228 111 75 91 90 201 42 304 -13
28 -24 53 -24 57 -1 4 17 20 38 36 39 29 40 31 37 86 -1 31 0 56 4 56 3 0 14
-18 23 -40 l17 -39 72 59 c40 33 80 71 89 85 15 23 15 28 -15 91 -63 135 -66
190 -26 462 24 162 25 157 -53 232 -55 53 -85 72 -153 100 -78 32 -91 35 -179
33 -110 -3 -232 -38 -326 -94 -111 -67 -346 -304 -395 -401 -13 -25 -36 -48
-67 -66 -26 -15 -78 -58 -117 -95 l-70 -68 -22 26 c-29 33 -29 55 -2 55 51 0
104 22 117 48 14 31 16 52 3 52 -5 0 -11 16 -13 35 -4 32 2 43 47 95 28 33 64
85 80 117 31 63 117 184 159 222 14 14 26 33 26 44 0 10 33 60 73 111 40 50
97 130 126 179 29 48 54 87 57 87 2 0 36 -11 76 -24 40 -13 98 -29 128 -36
107 -24 267 -80 285 -100 10 -11 24 -20 30 -20 30 0 143 -62 155 -86 18 -33
98 -100 187 -157 78 -50 91 -55 171 -61 30 -3 60 -10 68 -17 18 -14 90 -56
124 -70 61 -26 76 -36 88 -62 7 -15 18 -27 23 -27 6 0 18 -18 28 -40 16 -37
17 -44 2 -99 -15 -57 -14 -64 7 -153 13 -51 23 -104 23 -118 l0 -25 15 29 c12
22 13 30 4 36 -7 4 -9 16 -6 28 10 30 39 17 33 -14 -4 -25 8 -34 16 -11 4 9 7
9 18 -1 10 -9 11 -17 2 -30 -8 -14 -7 -22 6 -37 9 -11 23 -20 31 -20 8 0 16
-10 18 -22 3 -17 -3 -24 -22 -29 -16 -4 -23 -10 -18 -18 13 -21 9 -86 -6 -86
-9 0 -11 -7 -6 -22 6 -22 6 -22 -13 -5 -28 25 -38 21 -19 -8 10 -15 12 -25 6
-25 -15 0 -40 26 -40 42 -1 7 -7 24 -15 38 -12 23 -13 19 -8 -40 7 -96 39
-142 137 -202 44 -26 81 -47 82 -45 2 2 -8 25 -21 52 -14 26 -25 55 -25 62 0
8 16 44 36 81 34 64 35 70 29 138 -6 68 -5 75 25 128 34 59 46 65 97 45 15 -7
57 -14 93 -18 60 -6 66 -8 86 -41 13 -19 33 -48 47 -65 20 -26 22 -35 15 -65
-6 -19 -7 -57 -3 -85 12 -89 8 -151 -10 -179 -10 -15 -15 -29 -13 -32 12 -11
96 37 130 74 45 50 64 86 73 137 l7 40 -28 -33 c-20 -26 -29 -30 -35 -20 -7
10 -9 10 -9 1 0 -7 -7 -13 -16 -13 -14 0 -14 3 -4 15 7 9 19 14 26 11 7 -3 16
-1 19 4 4 6 -1 10 -10 10 -11 0 -14 6 -10 23 4 15 -1 32 -14 49 -24 30 -27 43
-8 32 7 -5 7 -1 -2 10 -9 10 -11 20 -5 24 18 13 34 51 24 57 -13 8 -13 52 0
60 10 6 44 -24 52 -46 3 -8 8 -11 12 -7 4 3 -2 25 -14 48 -12 23 -19 45 -16
48 8 8 56 -39 56 -54 0 -34 44 -123 77 -158 38 -40 65 -100 85 -189 14 -61 30
-50 58 42 23 74 30 265 11 298 -10 17 -10 17 -11 0 0 -10 -4 -16 -9 -13 -5 3
-11 -3 -14 -14 -6 -22 8 -37 16 -18 3 8 6 5 6 -5 1 -24 -15 -53 -33 -60 -12
-5 -14 3 -10 39 3 37 1 44 -15 44 -10 0 -26 9 -36 20 -18 19 -17 20 6 21 21 1
20 2 -8 11 -32 10 -53 40 -34 46 16 5 1 34 -41 77 -43 45 -45 51 -18 85 17 23
21 24 51 13 l33 -13 -34 35 c-19 19 -32 37 -29 39 2 3 31 -6 63 -19 62 -25
102 -56 112 -87 10 -33 23 -19 17 20 -16 108 -63 205 -114 233 -22 11 -38 0
-39 -26 0 -5 -21 -11 -48 -12 -36 -2 -43 0 -29 8 27 16 11 28 -27 19 -37 -8
-108 17 -86 30 7 4 -3 10 -24 14 -20 4 -41 4 -46 1 -17 -11 -11 7 8 22 16 12
15 13 -8 11 -14 -2 -29 -13 -36 -26 -28 -57 -73 -88 -89 -61 -7 10 -71 7 -127
-7 -22 -5 -28 -12 -28 -32 0 -20 -3 -23 -12 -14 -19 19 -28 14 -28 -12 0 -16
-7 -27 -20 -31 -11 -4 -33 -17 -49 -31 -16 -13 -33 -24 -38 -23 -22 3 -53 -15
-53 -32 0 -11 -7 -19 -15 -19 -11 0 -15 11 -15 41 0 22 -4 38 -8 35 -5 -3 -6
9 -4 27 2 19 19 47 40 70 20 20 32 37 28 37 -12 0 95 113 114 121 9 4 21 18
29 32 13 24 11 28 -20 60 -19 18 -42 37 -51 40 -10 4 -18 14 -18 23 0 9 -18
38 -40 64 -22 26 -40 57 -40 69 0 52 -54 110 -142 155 -21 10 -45 30 -53 43
-20 30 -116 73 -164 73 -60 0 -170 -48 -217 -95 -40 -40 -101 -153 -120 -220
-8 -30 -8 -29 -12 11 -2 35 -6 41 -21 37 -21 -5 -38 26 -20 38 8 5 4 16 -15
35 -14 16 -26 32 -26 36 0 5 -5 8 -11 8 -6 0 -9 -9 -6 -20 3 -13 0 -20 -9 -20
-8 0 -14 4 -14 8 0 4 -13 15 -29 25 -26 15 -28 20 -21 56 17 94 115 181 205
181 19 0 35 -2 35 -5 0 -2 -13 -18 -30 -35 -20 -20 -30 -41 -30 -60 l0 -30 35
20 c19 11 52 22 73 26 20 3 46 7 57 9 11 2 43 4 70 5 40 1 46 3 28 10 -13 5
-33 11 -45 13 -57 9 -141 43 -146 59 -2 9 -33 29 -69 44 -60 26 -64 30 -59 53
4 14 9 43 13 64 5 35 8 37 43 37 20 0 73 -5 116 -11 91 -12 182 -9 149 5 -11
5 -90 36 -175 70 -85 34 -154 66 -152 71 3 11 74 7 111 -6 59 -21 -13 21 -80
47 -71 27 -119 57 -103 66 5 2 70 -1 144 -8 164 -15 288 -17 274 -5 -10 9
-145 51 -184 57 -63 9 -192 42 -166 43 43 1 24 13 -78 49 -99 36 -118 39 -110
17 4 -9 15 -14 28 -11 11 2 46 -10 76 -25 58 -30 52 -36 -15 -18 -81 22 -116
42 -122 71 -3 15 -14 30 -24 33 -11 4 -19 10 -19 15 0 16 -44 25 -125 27 -170
4 -185 5 -185 11 0 4 7 25 15 47 18 50 19 76 3 74 -7 -1 -19 -1 -26 0 -19 2
-211 191 -229 224 -8 16 -17 27 -20 24 -2 -3 0 -15 7 -26 16 -31 7 -26 -62 30
-35 27 -97 68 -138 89 l-75 40 -60 -28 c-82 -39 -282 -153 -385 -220 -304
-198 -460 -336 -618 -544 l-73 -97 -35 21 c-18 11 -34 22 -34 25 0 4 32 40
157 172 29 31 66 74 83 96 17 22 89 96 159 165 125 122 128 126 144 190 9 36
16 87 16 113 0 27 1 50 3 53 6 5 64 -25 121 -64 27 -18 55 -32 63 -32 19 0 86
38 189 108 98 67 140 106 156 143 6 16 18 29 26 29 8 0 35 -21 62 -47 26 -27
70 -66 97 -88 27 -22 50 -43 52 -47 4 -9 63 2 80 15 7 5 14 8 16 6 2 -2 17
-24 35 -49 38 -54 158 -178 186 -192 11 -6 -12 23 -51 63 -56 59 -80 95 -119
177 -47 99 -57 113 -70 92 -3 -5 -10 -10 -15 -10 -9 0 -189 219 -229 277 -58
88 -194 194 -314 244 -51 22 -108 47 -127 56 -19 9 -37 18 -40 19 -3 0 -29 -4
-58 -11z m133 -186 c-6 -32 -15 -36 -15 -8 0 14 -6 31 -12 38 -11 11 -9 11 9
2 15 -7 21 -18 18 -32z m-1759 -484 c-4 -10 1 -15 15 -15 27 0 19 -24 -8 -28
-32 -5 -37 -32 -12 -59 22 -23 14 -34 -8 -12 -7 7 -38 12 -71 13 -58 1 -59 2
-49 24 6 12 18 22 28 22 10 0 23 9 29 20 8 15 17 19 31 15 15 -5 22 -1 26 14
3 12 10 21 15 21 6 0 8 -7 4 -15z m-116 -135 c9 -5 19 -5 26 1 8 6 13 5 17 -4
8 -22 -36 -42 -61 -28 -13 7 -19 17 -16 26 7 17 13 18 34 5z m546 -60 c-14
-17 -26 -26 -26 -19 0 15 41 61 48 54 2 -2 -7 -18 -22 -35z m-31 -23 c1 -54
-8 -58 -60 -24 -38 24 -53 47 -27 40 10 -2 26 5 37 16 32 33 49 22 50 -32z
m-157 -57 c3 0 3 -3 0 -6 -7 -6 -78 22 -78 31 0 3 16 -2 36 -10 20 -8 39 -15
42 -15z m78 -9 c25 -12 43 -16 50 -10 8 6 10 2 6 -16 -2 -14 -8 -22 -13 -19
-13 7 -11 -20 3 -51 16 -35 5 -41 -42 -20 -39 17 -51 37 -30 50 6 3 10 19 10
36 0 23 -4 29 -21 29 -11 0 -17 5 -14 10 8 13 5 13 51 -9z m189 9 c-28 -12
-37 -12 -30 0 3 6 16 10 28 9 21 0 21 -1 2 -9z m1755 -7 c0 -14 2 -14 21 3
l22 19 -13 -25 c-12 -22 -12 -24 2 -12 14 11 14 8 8 -25 -12 -60 -19 -71 -45
-68 -22 2 -24 -2 -31 -54 -8 -62 -61 -184 -76 -175 -6 4 -6 10 0 16 5 5 7 20
4 34 -6 34 -22 11 -22 -33 0 -18 -4 -33 -10 -33 -5 0 -10 5 -10 12 0 9 -3 9
-12 0 -22 -22 -28 -13 -22 36 4 31 2 42 -4 34 -7 -11 -11 -10 -16 5 -7 17 -9
16 -27 -6 -10 -13 -19 -32 -19 -43 0 -24 -18 -58 -30 -58 -13 0 -60 52 -60 67
0 7 -8 13 -17 13 -22 0 -193 82 -193 92 0 4 5 8 11 8 5 0 8 4 5 9 -3 4 6 13
19 19 14 7 25 16 25 22 0 5 17 19 38 30 20 11 55 32 77 45 74 46 207 80 323
83 42 2 52 -1 52 -15z m-1791 -12 c8 -11 20 -17 28 -14 7 3 13 0 13 -6 0 -8 5
-9 19 -1 27 14 31 13 31 -10 0 -13 -9 -22 -27 -26 -16 -4 -42 -20 -60 -37 -22
-21 -37 -28 -50 -23 -17 7 -17 8 2 22 11 8 19 21 17 29 -1 7 7 16 18 20 26 8
21 29 -8 33 -22 3 -28 13 -15 25 10 11 18 8 32 -12z m-2498 -33 c47 -26 55
-43 21 -45 -18 -1 -21 1 -11 8 13 8 5 14 -16 9 -5 -1 -7 2 -2 6 4 4 -5 16 -20
26 -39 25 -19 23 28 -4z m4419 -172 c0 -28 -16 -8 -24 29 -6 28 -5 29 9 11 8
-11 15 -29 15 -40z m-3352 -41 c0 -16 -2 -15 -8 5 -11 34 -11 60 0 35 5 -11 8
-29 8 -40z m3302 40 c0 -8 -7 -15 -15 -15 -8 0 -15 7 -15 15 0 8 7 15 15 15 8
0 15 -7 15 -15z m-2158 -60 c11 -21 8 -18 -32 30 -24 29 -24 29 -2 10 13 -11
28 -29 34 -40z m-1072 21 c0 -2 -8 -10 -17 -17 -16 -13 -17 -12 -4 4 13 16 21
21 21 13z m93 -37 c-8 -8 -14 -6 -22 9 -13 25 -2 37 18 17 11 -11 12 -18 4
-26z m3284 -25 c-2 -11 2 -25 9 -32 10 -9 18 -5 38 19 14 17 26 27 26 23 0
-13 -53 -64 -66 -64 -7 0 -16 -5 -20 -11 -4 -8 3 -9 26 -4 l33 7 -38 -46 c-20
-25 -41 -46 -46 -46 -5 0 -9 -6 -9 -13 0 -22 -75 -88 -92 -82 -20 8 -32 -22
-12 -33 11 -6 13 -19 8 -55 -4 -26 -11 -47 -16 -47 -4 0 -6 10 -3 23 4 15 1
28 -9 36 -10 9 -16 10 -16 2 0 -13 -73 -47 -122 -56 -30 -6 -42 -15 -61 -48
-13 -22 -22 -48 -20 -58 5 -18 33 -35 33 -19 0 4 14 1 32 -7 23 -12 33 -13 36
-5 5 17 22 15 22 -3 0 -19 -46 -42 -90 -46 -47 -4 -127 21 -157 49 -13 12 -31
22 -39 22 -9 0 -18 9 -21 20 -3 11 -9 18 -13 15 -5 -3 -22 8 -38 25 -17 16
-25 30 -17 30 7 0 19 -9 26 -20 14 -21 14 -21 26 -1 11 18 9 23 -20 44 -45 34
-70 38 -133 21 -30 -8 -68 -14 -84 -14 -17 0 -30 -4 -30 -10 0 -5 -6 -10 -14
-10 -7 0 -19 -7 -26 -15 -15 -18 -66 -20 -76 -3 -5 7 -2 9 9 5 23 -9 84 23 66
34 -19 12 -32 11 -24 -1 10 -16 -21 -12 -34 4 -7 8 -26 18 -42 21 -23 5 -27
10 -20 19 13 15 4 26 -20 26 -18 0 -49 25 -49 40 0 5 7 7 16 3 13 -5 15 -2 10
14 -5 16 -1 22 19 27 14 4 25 14 25 22 0 13 7 15 31 10 19 -3 38 -1 46 5 19
17 96 4 152 -25 69 -36 96 -37 165 -8 73 31 78 37 71 80 -7 38 0 40 25 10 11
-14 17 -31 13 -42 -5 -18 -4 -18 23 1 16 12 38 30 48 42 12 13 26 19 37 16 11
-4 26 3 38 16 19 21 22 21 39 6 10 -9 24 -17 31 -17 17 0 91 -61 86 -70 -6
-10 24 -22 36 -14 5 3 9 14 9 25 0 10 4 19 10 19 5 0 7 6 4 14 -3 9 3 17 15
21 12 3 19 11 16 16 -4 5 -1 9 6 9 8 0 9 3 0 14 -14 17 9 39 32 30 8 -3 18 -1
22 5 3 6 2 11 -3 11 -5 0 -9 7 -9 15 0 8 3 12 7 10 3 -2 15 10 25 26 19 27 21
28 33 12 7 -10 11 -27 9 -39z m-192 18 c-3 -3 -11 0 -18 7 -9 10 -8 11 6 5 10
-3 15 -9 12 -12z m-3264 -53 c-17 -23 -31 -39 -31 -35 0 11 53 87 57 82 3 -2
-9 -23 -26 -47z m2745 36 c18 -14 16 -15 -21 -9 -58 10 -78 23 -34 24 19 0 44
-7 55 -15z m484 -20 c0 -8 -4 -15 -10 -15 -5 0 -10 7 -10 15 0 8 5 15 10 15 6
0 10 -7 10 -15z m110 6 c0 -12 -47 -61 -59 -61 -5 0 -11 -6 -13 -12 -4 -10
-11 -10 -34 1 l-29 13 53 22 c29 12 58 28 64 34 14 14 18 15 18 3z m-2710 -11
c0 -5 -5 -10 -11 -10 -5 0 -7 5 -4 10 3 6 8 10 11 10 2 0 4 -4 4 -10z m260 -9
c0 -16 -18 -22 -26 -10 -5 8 -8 8 -14 0 -5 -9 -14 -9 -34 -1 -24 9 -22 4 23
-52 28 -34 48 -64 44 -67 -3 -4 -8 0 -10 7 -3 6 -9 12 -14 12 -6 0 -6 -8 1
-19 19 -36 10 -35 -28 2 -36 35 -131 77 -174 77 -10 0 -22 -10 -27 -22 -6 -16
-9 -18 -13 -7 -13 33 38 63 128 78 69 12 144 13 144 2z m2943 -2 c11 -7 46
-13 76 -15 31 -1 61 -3 67 -3 5 -1 19 -8 30 -16 18 -14 17 -15 -11 -9 -16 4
-36 11 -42 17 -9 6 -13 6 -13 -1 0 -7 24 -18 53 -27 52 -15 91 -35 71 -35 -14
0 -207 64 -254 84 -21 9 -27 15 -17 16 10 0 28 -5 40 -11z m-2710 -8 c4 0 7
-8 7 -17 0 -8 5 -12 10 -9 15 9 12 -2 -6 -19 -8 -9 -11 -16 -6 -16 6 0 6 -10
-1 -25 -7 -14 -16 -23 -22 -22 -16 6 -35 50 -35 83 0 31 5 33 53 25z m-244
-23 c11 -10 13 -10 7 0 -10 18 2 15 25 -7 20 -18 20 -18 -5 -18 -14 0 -33 8
-42 18 -19 21 -6 26 15 7z m321 -34 c0 -6 7 -14 15 -18 8 -3 14 -16 14 -28
l-2 -23 -4 23 c-3 15 -10 22 -18 18 -8 -3 -16 0 -19 7 -2 7 -5 4 -5 -5 -1 -10
-6 -18 -12 -18 -6 0 -7 8 -3 23 5 12 7 33 7 47 -1 24 -1 24 13 5 8 -10 14 -24
14 -31z m1420 15 c0 -27 -2 -30 -15 -19 -24 20 -19 39 13 49 1 1 2 -13 2 -30z
m52 -6 c-4 -33 -6 -35 -13 -15 -8 22 -3 52 10 52 4 0 5 -17 3 -37z m-2496 7
c17 0 27 -8 34 -26 6 -14 8 -30 4 -35 -5 -9 54 -69 68 -69 5 0 8 -5 8 -11 0
-6 10 -20 23 -31 12 -11 16 -16 8 -12 -11 5 -13 2 -8 -16 6 -25 -11 -60 -30
-60 -7 0 -10 -6 -7 -14 4 -11 0 -13 -18 -9 l-23 5 25 -21 c14 -11 21 -21 17
-21 -15 0 -67 30 -67 39 0 15 -52 23 -64 10 -8 -9 -7 -11 6 -6 23 8 40 -16 36
-50 l-4 -28 -16 34 c-9 20 -18 29 -22 22 -4 -6 -4 -15 -1 -21 13 -20 -42 -9
-62 13 -52 58 -63 212 -14 212 7 0 20 9 27 20 12 18 11 20 -12 20 -23 0 -23
-1 -7 -14 16 -12 15 -13 -12 -6 -16 3 -32 8 -34 11 -6 6 20 34 33 35 6 0 27
11 46 23 19 13 37 20 38 15 2 -5 15 -9 28 -9z m2590 -18 c-4 -3 -12 0 -19 7
-9 9 -9 14 3 21 11 7 16 5 18 -6 2 -9 1 -18 -2 -22z m-2159 22 c-3 -3 -12 -4
-19 -1 -8 3 -5 6 6 6 11 1 17 -2 13 -5z m2233 -60 c-16 -18 -31 -18 -25 1 17
53 15 52 26 32 8 -13 7 -22 -1 -33z m1288 29 c12 -3 25 -9 28 -14 9 -15 -19
-9 -56 12 -19 11 -26 17 -15 13 11 -3 30 -9 43 -11z m-1343 -23 c-10 -11 -22
-20 -26 -20 -4 0 2 11 14 24 12 14 24 23 26 20 2 -2 -4 -13 -14 -24z m-2178 4
c-3 -3 -12 -4 -19 -1 -8 3 -5 6 6 6 11 1 17 -2 13 -5z m322 -38 c-2 -2 -13 8
-23 22 l-19 27 24 -22 c12 -12 21 -24 18 -27z m-1362 20 c2 -2 -12 -4 -31 -3
-20 1 -36 4 -36 8 0 8 59 3 67 -5z m1035 -8 c-14 -14 -104 -50 -110 -44 -2 2
6 7 17 11 12 3 19 11 16 16 -3 5 1 6 9 3 8 -3 27 1 43 10 34 19 41 20 25 4z
m-917 -16 c11 -8 13 -16 21 -74 6 -40 0 -46 -29 -24 -12 9 -14 15 -6 18 25 8
-14 45 -60 56 l-46 11 43 -5 c33 -3 42 -1 42 11 0 16 18 20 35 7z m3162 -6
c-12 -10 -37 -13 -75 -10 -91 6 -92 7 -7 14 44 3 85 7 90 8 6 1 2 -5 -8 -12z
m-1483 -20 c17 -27 6 -43 -26 -38 -11 2 -18 -3 -18 -12 0 -9 -4 -16 -10 -16
-13 0 -13 17 0 25 5 3 7 12 3 20 -5 15 13 45 27 45 4 0 15 -11 24 -24z m-1726
-35 c11 -7 11 -9 -1 -14 -16 -6 -27 0 -27 15 0 10 11 10 28 -1z m1269 -13 c-3
-8 -6 -5 -6 6 -1 11 2 17 5 13 3 -3 4 -12 1 -19z m498 12 c3 -6 -1 -13 -10
-16 -19 -8 -30 0 -20 15 8 14 22 14 30 1z m-745 -44 c37 -24 78 -82 67 -93 -3
-2 -8 5 -12 17 -5 15 -12 19 -25 15 -10 -3 -21 -1 -25 5 -3 5 -13 10 -22 10
-14 0 -14 -3 1 -25 19 -28 11 -33 -15 -9 -18 16 -124 35 -148 26 -8 -3 -20 3
-27 13 -12 16 -8 21 39 47 63 34 109 33 167 -6z m995 -75 c3 -5 18 -12 35 -16
16 -4 32 -15 35 -26 7 -20 25 -27 25 -9 0 6 7 10 16 10 11 0 14 -5 10 -16 -3
-9 -6 -20 -6 -25 0 -17 -39 -9 -50 11 -6 11 -18 20 -26 20 -8 0 -12 5 -9 10 3
6 -1 10 -10 10 -21 0 -11 -38 16 -62 25 -21 24 -28 -4 -28 -18 0 -29 11 -45
44 -25 50 -28 86 -8 86 8 0 17 -4 21 -9z m-1728 -31 c-30 -24 -38 -25 -31 -5
4 8 10 13 14 10 5 -3 11 -1 15 5 3 5 11 10 17 10 6 0 -1 -9 -15 -20z m2543 10
c0 -5 -7 -7 -15 -4 -8 4 -15 8 -15 10 0 2 7 4 15 4 8 0 15 -4 15 -10z m-1683
-33 c3 -6 7 -33 8 -62 2 -29 6 -62 10 -74 4 -14 2 -23 -9 -27 -9 -3 -13 -10
-11 -15 14 -22 -107 -109 -149 -108 -19 1 -23 3 -11 6 11 2 31 13 45 24 l25
19 -28 -10 c-16 -5 -47 -10 -70 -10 l-42 0 30 26 30 25 -33 -5 c-32 -5 -32 -5
-17 18 11 16 13 26 6 31 -25 15 65 135 101 135 16 0 22 10 19 32 -1 10 89 6
96 -5z m1823 -7 c11 -7 9 -11 -13 -19 -38 -15 -39 -14 -25 9 14 23 17 23 38
10z m174 -28 c17 -20 24 -31 16 -24 -8 6 -24 12 -36 12 -13 0 -26 5 -29 10 -4
6 -12 7 -18 3 -7 -5 -25 -10 -42 -11 l-30 -2 25 12 c14 7 29 18 33 25 15 24
51 12 81 -25z m432 -9 c-7 -7 -26 7 -26 19 0 6 6 6 15 -2 9 -7 13 -15 11 -17z
m-1299 3 c13 -2 26 -5 29 -8 9 -10 -36 -30 -53 -24 -8 4 -22 -3 -33 -16 -16
-21 -22 -22 -49 -11 -98 37 49 -103 207 -197 39 -24 70 -45 68 -47 -2 -3 -13
0 -25 6 -14 8 -22 8 -26 0 -4 -6 -5 -12 -4 -14 11 -10 165 -76 201 -86 24 -6
37 -14 29 -17 -13 -4 -109 29 -206 71 -103 45 -272 171 -329 245 l-36 45 40
18 c28 13 48 15 69 9 25 -7 31 -5 42 17 10 18 18 23 34 18 11 -4 30 -8 42 -9z
m1372 -30 c-6 -20 -17 -40 -25 -43 -27 -10 -26 5 2 46 16 21 30 38 31 37 1 -1
-2 -19 -8 -40z m861 18 c37 -15 39 -18 23 -29 -10 -6 -32 -17 -50 -23 -35 -12
-83 -58 -119 -114 -14 -21 -32 -38 -42 -39 -10 0 -12 -3 -4 -6 12 -5 17 -33 5
-33 -3 0 -22 12 -41 27 l-35 26 7 -26 c7 -29 -3 -34 -35 -17 -23 13 -26 60 -4
60 12 0 13 4 6 18 -13 25 13 68 71 115 66 54 147 69 218 41z m-3885 -14 c10
-11 16 -20 13 -20 -3 0 -13 9 -23 20 -10 11 -16 20 -13 20 3 0 13 -9 23 -20z
m1300 -11 c30 -17 68 -46 85 -65 26 -30 30 -42 30 -93 0 -54 -22 -153 -40
-176 -4 -5 -10 -21 -14 -35 -3 -14 -12 -33 -20 -43 -17 -22 -42 -13 -93 36
-32 30 -32 30 -17 66 9 20 18 42 21 49 3 6 0 12 -6 12 -6 0 -11 -6 -11 -13 0
-21 -40 -54 -93 -77 -46 -21 -50 -21 -97 -5 -28 9 -52 21 -55 26 -8 12 -3 12
38 -6 20 -8 49 -15 64 -14 27 0 28 1 6 11 -25 12 -30 37 -11 56 14 14 72 -24
61 -41 -4 -7 1 -6 11 2 12 10 14 17 6 25 -16 16 -12 30 5 16 22 -18 31 -4 12
18 -10 10 -14 22 -10 25 9 10 25 9 19 -1 -2 -4 0 -14 5 -22 8 -13 10 -13 18
-1 7 10 0 25 -21 52 -29 37 -30 38 -18 96 13 64 45 133 60 133 6 0 35 -14 65
-31z m565 -11 c0 -12 -6 -9 -26 13 -19 22 -19 22 4 8 12 -8 22 -17 22 -21z
m54 -29 c36 -28 22 -44 -15 -17 -28 21 -38 38 -20 38 4 0 20 -9 35 -21z m777
-60 c96 -31 158 -35 213 -14 26 10 49 16 51 13 10 -10 -7 -37 -32 -53 -43 -28
-100 -23 -198 19 -129 55 -144 71 -34 35z m-706 0 c11 -17 2 -18 -19 -3 -17
12 -17 14 -4 14 9 0 20 -5 23 -11z m-2261 -8 c3 -5 20 -11 38 -14 65 -10 113
-34 112 -56 0 -12 4 -21 10 -21 21 0 -19 -20 -41 -20 -29 0 -30 -16 -2 -23 33
-9 17 -30 -34 -47 -50 -16 -58 -26 -29 -33 11 -3 7 -5 -10 -6 -14 0 -34 -4
-44 -8 -12 -4 -15 -3 -10 5 4 7 0 15 -11 18 -76 25 -88 38 -86 91 1 7 -3 10
-8 7 -5 -3 -9 -1 -9 5 0 5 5 13 10 16 16 10 11 28 -6 21 -9 -3 -12 -2 -9 4 4
6 12 10 18 8 7 -1 28 6 47 15 l35 17 -42 -3 c-24 -1 -43 1 -43 5 0 7 20 13 70
21 14 3 28 5 32 6 4 0 9 -3 12 -8z m-404 -39 c0 -4 -10 -9 -22 -9 -18 -2 -20
0 -8 7 18 12 30 13 30 2z m2270 -67 c13 -14 29 -25 37 -25 27 0 11 -16 -39
-40 -28 -14 -87 -49 -130 -77 -44 -29 -82 -53 -86 -53 -13 0 51 50 142 111 83
55 101 78 36 44 -16 -8 -31 -11 -35 -6 -3 6 -18 6 -38 0 -17 -5 -36 -9 -42 -9
-13 0 106 79 121 79 6 1 21 -10 34 -24z m-1134 -14 c-8 -13 -36 -15 -36 -3 0
4 5 13 12 20 14 14 34 0 24 -17z m674 14 c0 -9 -6 -12 -15 -9 -8 4 -15 10 -15
15 0 5 7 9 15 9 8 0 15 -7 15 -15z m-2008 -13 c-27 -13 -34 -14 -45 -2 -10 10
-9 12 3 8 8 -3 24 -2 35 3 36 14 41 8 7 -9z m1888 -30 c0 -5 -7 -17 -15 -28
-14 -18 -14 -17 -4 9 12 27 19 34 19 19z m3563 -17 c-1 -5 3 -15 7 -21 6 -7
-10 -17 -47 -29 -70 -24 -158 -102 -184 -163 -11 -24 -22 -42 -27 -40 -54 27
-62 33 -62 54 0 13 5 26 10 29 6 4 8 15 5 24 -3 11 3 25 15 36 11 10 20 23 20
30 0 7 10 20 22 31 22 19 22 19 8 0 -14 -18 -14 -19 7 -8 12 7 25 17 29 24 5
7 2 9 -7 4 -8 -4 -5 -1 5 8 10 8 23 13 27 10 5 -3 9 -1 9 5 0 14 28 19 100 18
37 -1 64 -6 63 -12z m-2903 -41 c0 -14 -17 -19 -53 -16 -10 1 -15 -3 -12 -8 6
-9 -8 -14 -27 -11 -5 0 -7 -5 -5 -11 1 -7 -6 -12 -15 -12 -10 1 -16 -3 -15 -9
1 -7 -9 -13 -23 -15 -21 -3 -22 -2 -11 12 20 24 143 96 153 90 4 -3 8 -12 8
-20z m2645 16 c-3 -5 -12 -10 -18 -10 -7 0 -6 4 3 10 19 12 23 12 15 0z
m-1645 -55 c-7 -8 -17 -15 -23 -15 -6 0 -2 7 9 15 25 19 30 19 14 0z m-2955
-15 c23 -26 4 -26 -26 0 -18 15 -20 19 -8 20 9 0 24 -9 34 -20z m2439 7 c19 4
19 3 4 -7 -17 -10 -58 1 -58 16 0 3 7 1 16 -4 9 -5 26 -7 38 -5z m1806 -17
c14 -10 22 -21 19 -24 -9 -9 -59 18 -59 32 0 17 11 15 40 -8z m570 -25 c0 -2
-10 -9 -22 -15 -22 -11 -22 -10 -4 4 21 17 26 19 26 11z m-4160 -65 c0 -42
-44 -90 -83 -90 -30 1 -31 2 -13 15 19 14 18 15 -3 23 -22 8 -20 11 31 49 29
22 56 39 61 36 4 -2 7 -17 7 -33z m4370 26 c0 -8 6 -16 13 -19 6 -2 -4 -7 -23
-12 -102 -22 -184 -71 -219 -132 -18 -30 -14 30 5 76 24 61 90 101 166 101 43
0 58 -4 58 -14z m-226 -20 c-10 -8 -21 -12 -24 -10 -5 6 21 24 34 24 6 0 1 -6
-10 -14z m-4455 -28 c19 -11 18 -12 -4 -24 -27 -14 -75 -7 -75 11 0 13 17 21
48 24 7 0 21 -4 31 -11z m-111 -20 c17 -17 15 -28 -7 -28 -19 0 -35 23 -24 34
9 9 18 7 31 -6z m2462 -17 c0 -5 -13 -19 -29 -30 -23 -17 -36 -19 -72 -13
l-44 8 43 7 c24 4 47 5 52 2 5 -3 15 3 22 15 13 21 28 27 28 11z m-370 -10 c0
-5 -10 -11 -22 -15 -19 -5 -20 -8 -9 -15 12 -8 10 -12 -12 -22 -52 -24 -47 9
7 42 36 22 36 22 36 10z m-2110 -35 c0 -3 -4 -8 -10 -11 -5 -3 -10 -1 -10 4 0
6 5 11 10 11 6 0 10 -2 10 -4z m4760 0 c0 -3 -4 -8 -10 -11 -5 -3 -10 -1 -10
4 0 6 5 11 10 11 6 0 10 -2 10 -4z m-2530 -20 c0 -8 -92 -78 -96 -73 -3 3 16
21 43 41 49 36 53 39 53 32z m2535 -40 c-16 -13 -32 -22 -35 -19 -6 5 41 42
55 43 6 0 -3 -11 -20 -24z m-45 -30 c0 -2 -8 -10 -17 -17 -16 -13 -17 -12 -4
4 13 16 21 21 21 13z m195 -66 c-3 -5 -15 -10 -26 -10 -11 0 -38 -9 -59 -20
-22 -11 -40 -16 -40 -11 0 10 88 50 113 51 10 0 15 -4 12 -10z m-2820 -49
c-17 -33 -85 -93 -100 -88 -5 2 -12 14 -13 27 -4 21 -2 23 13 10 14 -11 18
-11 25 0 4 7 6 19 3 26 -2 7 5 17 16 24 24 12 26 8 10 -23 -6 -12 4 -5 22 16
39 45 44 47 24 8z m2785 9 c0 -5 7 -6 17 -3 11 4 14 3 9 -5 -4 -7 -12 -12 -18
-12 -6 0 -26 -12 -45 -26 -38 -29 -48 -27 -39 9 7 31 76 65 76 37z m-2982
-109 c-13 -11 -47 -31 -74 -46 -63 -33 -34 -2 33 36 57 32 76 37 41 10z m24
-79 c18 -16 59 -48 92 -72 87 -63 100 -78 85 -96 -7 -8 -8 -14 -3 -13 26 5 21
-6 -27 -51 -45 -43 -58 -50 -79 -44 -14 4 -41 8 -60 9 -87 4 -90 5 -90 24 0
11 5 23 11 27 6 3 9 22 6 43 -2 20 0 46 4 58 5 14 2 39 -8 69 -15 45 -15 48 2
61 26 18 30 17 67 -15z m-80 -49 c5 -75 -27 -153 -60 -153 -24 1 -111 49 -89
50 9 0 17 8 17 18 1 15 2 15 17 -3 15 -20 15 -19 10 4 -7 29 8 52 28 44 17 -6
45 19 45 40 0 36 29 36 32 0z m-512 -19 c-9 -21 -7 -29 7 -40 16 -12 16 -13
-9 -14 -32 0 -32 0 -14 45 17 40 30 48 16 9z m3605 -13 c-3 -6 -11 -11 -17
-11 -6 0 -6 6 2 15 14 17 26 13 15 -4z m-3535 -20 c-6 -12 -17 -21 -25 -21
-11 0 -9 6 7 25 25 29 35 26 18 -4z m3372 -6 c-2 -14 -8 -28 -13 -31 -10 -6
-12 49 -3 59 13 12 21 -3 16 -28z m-3152 -46 c0 -9 9 -27 19 -40 19 -24 19
-24 -10 -36 -64 -27 -101 20 -62 77 30 44 52 44 53 -1z m615 -7 c-3 -3 -11 0
-18 7 -9 10 -8 11 6 5 10 -3 15 -9 12 -12z m75 -22 c18 -12 2 -12 -25 0 -13 6
-15 9 -5 9 8 0 22 -4 30 -9z m1217 -176 c-3 -3 -12 -4 -19 -1 -8 3 -5 6 6 6
11 1 17 -2 13 -5z m-297 -88 c0 -2 -7 -7 -16 -10 -8 -3 -12 -2 -9 4 6 10 25
14 25 6z m118 -192 c4 2 18 -4 32 -14 20 -15 22 -20 11 -34 -9 -11 -10 -16 -2
-16 18 0 13 -21 -24 -98 -35 -71 -48 -85 -58 -59 -3 6 -6 0 -6 -15 -1 -23 -6
-28 -26 -28 -26 0 -33 -18 -15 -36 8 -8 7 -19 -1 -37 -10 -21 -15 -24 -26 -16
-11 10 -12 8 -7 -7 4 -10 11 -24 16 -31 7 -8 1 -21 -16 -38 -14 -14 -26 -30
-26 -35 0 -14 -27 -12 -34 3 -4 8 -10 5 -21 -9 -13 -18 -21 -20 -50 -14 -32 7
-35 6 -35 -14 0 -13 -12 -33 -26 -47 -25 -23 -26 -23 -20 -3 4 12 2 43 -4 68
-7 33 -7 53 0 66 7 13 7 20 1 20 -6 0 -15 -9 -21 -21 -7 -11 -14 -18 -17 -15
-3 2 9 26 27 52 35 52 80 148 80 170 0 8 12 33 26 55 14 23 21 38 15 35 -19
-12 -12 26 11 60 13 18 33 39 45 45 34 18 95 26 131 17 18 -5 36 -7 40 -4z
m-782 -289 c-24 -53 -27 -56 -58 -53 -28 3 -33 7 -36 33 -2 22 0 26 7 15 5 -8
7 -18 5 -22 -3 -4 4 -8 15 -8 12 0 21 6 21 13 0 7 11 29 25 49 15 22 25 53 26
75 l1 38 10 -41 c9 -37 7 -49 -16 -99z m-46 8 c0 -18 -17 -16 -24 3 -3 9 -6
28 -5 42 l1 27 13 -30 c8 -16 14 -36 15 -42z m169 -103 c7 -47 21 -119 32
-162 23 -91 23 -98 6 -73 -8 10 -19 15 -24 12 -14 -9 -21 12 -38 108 -16 85
-19 173 -9 200 11 28 20 4 33 -85z m-458 -60 c-16 -62 -33 -115 -36 -119 -4
-3 -29 18 -57 47 -51 53 -51 53 -29 69 19 12 20 17 9 31 -12 16 -11 16 7 2 11
-8 25 -21 31 -29 12 -16 18 -9 28 34 6 26 65 90 74 80 2 -2 -10 -54 -27 -115z
m-2031 70 c0 -5 6 -10 14 -10 7 0 16 -9 19 -20 3 -11 13 -20 23 -20 15 0 15
-3 -6 -17 -23 -16 -28 -13 -33 14 0 5 -9 17 -19 27 -20 22 -23 36 -8 36 6 0
10 -4 10 -10z m3439 -24 c12 -11 21 -24 21 -30 0 -6 -5 -4 -10 4 -9 13 -13 12
-29 -7 -11 -13 -26 -23 -34 -23 -8 0 -17 -7 -21 -15 -9 -24 -28 -18 -21 6 9
26 13 49 14 69 1 22 54 19 80 -4z m101 6 c0 -13 -12 -22 -22 -16 -10 6 -1 24
13 24 5 0 9 -4 9 -8z m-5060 -16 c0 -2 -9 -6 -20 -9 -11 -3 -18 -1 -14 4 5 9
34 13 34 5z m1636 -94 c-8 -7 -25 8 -37 31 -11 21 -10 21 15 -2 14 -14 24 -26
22 -29z m-1597 32 c21 -4 30 -11 27 -20 -3 -7 0 -15 7 -17 7 -2 -1 -4 -18 -4
-16 0 -68 -3 -115 -6 -47 -3 -74 -4 -61 -1 13 3 39 14 57 25 19 10 34 14 34 9
0 -6 -4 -10 -10 -10 -5 0 -10 -5 -10 -11 0 -8 4 -8 14 0 8 7 25 9 40 5 16 -4
26 -2 26 5 0 6 -12 11 -26 11 -14 0 -23 4 -19 10 7 12 12 12 54 4z m1526 -62
c-6 -16 -7 -16 -16 0 -7 13 -6 22 3 32 11 12 13 12 16 -1 2 -8 1 -22 -3 -31z
m1535 0 c0 -71 -12 -100 -46 -118 -34 -18 -35 -18 -72 1 -46 25 -55 60 -20 87
12 9 31 18 40 18 9 0 24 7 33 16 12 13 19 14 30 4 12 -10 15 -9 15 9 0 12 5
19 10 16 6 -3 10 -18 10 -33z m1382 13 c0 -5 -5 -11 -11 -13 -6 -2 -11 4 -11
13 0 9 5 15 11 13 6 -2 11 -8 11 -13z m-4422 -30 c0 -5 -5 -3 -10 5 -5 8 -10
20 -10 25 0 6 5 3 10 -5 5 -8 10 -19 10 -25z m4370 9 c0 -8 -4 -12 -10 -9 -5
3 -10 13 -10 21 0 8 5 12 10 9 6 -3 10 -13 10 -21z m-4400 -8 c0 -1 -14 0 -31
2 -21 3 -27 7 -18 13 11 6 49 -5 49 -15z m1636 -22 c-4 -9 -9 -15 -11 -12 -3
3 -3 13 1 22 4 9 9 15 11 12 3 -3 3 -13 -1 -22z m2734 0 c0 -14 -3 -14 -15 -4
-8 7 -15 14 -15 16 0 2 7 4 15 4 8 0 15 -7 15 -16z m-435 -4 c3 -5 1 -10 -4
-10 -6 0 -11 5 -11 10 0 6 2 10 4 10 3 0 8 -4 11 -10z m292 -97 c-3 -3 -16 -2
-28 2 -22 7 -22 8 -4 21 17 12 20 12 28 -2 5 -8 7 -18 4 -21z m-169 -19 c-4
-3 -12 5 -18 18 -12 22 -12 22 6 6 10 -10 15 -20 12 -24z m-108 16 c0 -5 -2
-10 -4 -10 -3 0 -8 5 -11 10 -3 6 -1 10 4 10 6 0 11 -4 11 -10z m-4191 -13
c-2 -1 -13 -9 -24 -17 -19 -14 -19 -14 -6 3 7 9 18 17 24 17 6 0 8 -1 6 -3z
m75 -22 c-9 -14 -26 -30 -36 -36 -17 -9 -18 -8 -9 9 14 26 40 52 52 52 5 0 2
-11 -7 -25z m206 -10 c0 -12 -8 -30 -19 -39 -18 -16 -19 -16 -25 9 -8 32 9 66
29 59 8 -4 15 -16 15 -29z m1672 -7 c-9 -9 -12 -7 -12 12 0 19 3 21 12 12 9
-9 9 -15 0 -24z m2262 -23 c2 -5 12 -30 24 -55 20 -42 21 -60 2 -60 -4 0 -11
7 -14 16 -3 8 -2 12 4 9 6 -3 10 0 10 7 0 17 -29 57 -30 43 -1 -5 -7 8 -14 30
-14 45 -8 83 7 44 5 -13 10 -28 11 -34z m126 -7 c0 -17 -10 -6 -25 25 l-16 32
20 -25 c11 -14 21 -28 21 -32z m-3822 7 c7 -15 8 -25 2 -26 -39 -5 -70 -20
-80 -40 -10 -17 -40 -28 -40 -14 0 12 33 71 49 87 24 25 56 22 69 -7z m-471
-60 c-12 -18 -42 -61 -66 -96 -24 -34 -56 -89 -71 -123 -26 -57 -80 -124 -80
-98 0 6 5 14 11 18 6 4 8 20 5 39 -6 29 -2 39 29 72 20 21 43 45 51 54 8 9 20
34 25 55 7 26 27 53 57 80 54 48 72 48 39 -1z m190 -7 c-3 -8 -6 -5 -6 6 -1
11 2 17 5 13 3 -3 4 -12 1 -19z m437 -24 c63 -29 106 -82 101 -124 -2 -14 -4
-29 -4 -35 -1 -5 -5 -3 -11 5 -7 11 -11 9 -19 -13 -6 -16 -11 -35 -11 -43 0
-8 -9 -14 -20 -14 -11 0 -20 6 -20 13 0 13 -50 47 -69 47 -6 0 -36 19 -66 43
-37 28 -55 49 -55 64 0 25 -16 39 -23 21 -2 -7 -8 -10 -12 -6 -16 15 5 38 37
39 18 0 49 7 68 14 46 18 40 19 104 -11z m404 -73 l-1 -76 -7 60 c-3 33 -10
67 -14 76 -5 11 -2 16 9 16 12 0 15 -14 13 -76z m4615 31 c-10 -10 -24 -17
-31 -14 -9 3 -8 8 5 18 27 20 46 17 26 -4z m-5353 -51 c0 -5 -7 -11 -15 -15
-20 -7 -21 -76 0 -76 8 0 19 10 26 21 10 19 13 20 26 6 12 -11 13 -22 6 -44
-8 -25 -15 -28 -55 -31 -36 -2 -50 -9 -62 -26 -8 -13 -36 -34 -62 -46 -38 -19
-48 -20 -55 -9 -14 23 -10 48 11 69 20 20 41 27 39 13 -1 -5 0 -19 1 -33 2
-23 2 -23 11 7 5 17 21 41 35 52 19 15 23 25 18 45 -9 35 19 76 51 76 14 0 25
-4 25 -9z m3431 -81 c5 0 5 7 2 17 -4 11 -3 14 5 9 17 -10 15 -43 -3 -50 -19
-7 -36 31 -34 77 1 30 2 30 12 -10 5 -24 14 -43 18 -43z m-3617 58 c-4 -7 -14
-21 -22 -30 -39 -46 -72 -226 -43 -236 13 -4 14 -39 2 -47 -21 -13 -41 -67
-31 -85 20 -37 9 -32 -20 9 -28 38 -30 47 -24 91 4 28 10 50 13 50 4 0 8 10 8
22 1 13 6 24 12 26 5 2 7 20 4 41 -6 43 5 68 56 130 31 38 61 57 45 29z m5696
-18 c0 -13 -70 -42 -87 -36 -24 10 -15 34 11 29 13 -3 27 0 30 6 9 14 46 15
46 1z m-5880 -10 c0 -5 -2 -10 -4 -10 -3 0 -8 5 -11 10 -3 6 -1 10 4 10 6 0
11 -4 11 -10z m5729 -36 c31 -6 44 -24 18 -24 -8 0 -27 -6 -43 -14 -17 -8 -43
-12 -63 -9 l-33 6 28 23 c29 25 42 28 93 18z m-5128 -28 c32 -13 57 -35 73
-63 5 -9 -2 -13 -23 -13 -23 0 -29 4 -25 15 4 11 -4 16 -34 21 -27 4 -42 12
-45 25 -9 32 4 36 54 15z m-87 -12 c4 -10 1 -14 -6 -12 -15 5 -23 28 -10 28 5
0 13 -7 16 -16z m1649 -16 c9 -5 17 -13 17 -18 0 -17 -28 -11 -39 7 -13 24
-21 13 -10 -14 7 -20 19 -26 45 -22 13 2 23 -26 18 -45 -4 -12 -2 -16 4 -12
15 9 32 -26 31 -61 -2 -26 -2 -25 -9 7 -7 32 -8 33 -15 13 -5 -15 -15 -23 -29
-23 -27 1 -60 25 -52 39 4 5 -1 14 -10 19 -11 6 -14 14 -9 23 5 7 10 27 11 44
2 21 1 24 -4 12 -5 -10 -12 -18 -17 -17 -30 4 -45 -10 -45 -39 0 -17 -5 -31
-11 -31 -7 0 -9 10 -7 25 4 20 1 25 -14 25 -18 0 -19 4 -13 38 9 47 13 51 30
29 14 -19 40 -14 49 9 6 15 41 11 79 -8z m-1705 -1 c15 4 15 3 2 -6 -22 -15
-30 -14 -29 7 0 9 3 12 5 5 3 -7 13 -9 22 -6z m3413 -23 c18 -19 33 -37 32
-40 -8 -13 -1 -24 14 -24 13 0 14 -3 5 -12 -10 -10 -18 -6 -40 16 -19 20 -23
30 -14 33 10 4 9 9 -4 24 -21 23 -42 25 -23 2 12 -14 12 -16 -1 -11 -16 5 -27
48 -13 48 5 0 25 -16 44 -36z m-4014 -11 c-3 -42 -14 -66 -27 -58 -5 3 -4 20
1 38 6 17 12 38 15 45 7 25 14 11 11 -25z m5793 22 c0 -9 -9 -15 -25 -15 -14
0 -38 -11 -53 -24 -66 -59 -76 -66 -101 -66 -19 0 -22 3 -12 9 8 5 16 17 17
27 2 9 9 21 16 25 10 7 10 9 -2 9 -23 1 40 33 80 41 59 12 80 10 80 -6z
m-5105 -25 c7 -12 -2 -12 -30 0 -19 8 -19 9 2 9 12 1 25 -3 28 -9z m3240 -40
c10 -11 16 -20 13 -20 -3 0 -13 9 -23 20 -10 11 -16 20 -13 20 3 0 13 -9 23
-20z m135 -86 c0 -9 -11 -1 -52 37 l-43 41 48 -37 c26 -21 47 -39 47 -41z
m-3930 -13 c-9 -51 -5 -107 10 -116 13 -8 -2 -48 -26 -74 -19 -21 -25 -22 -38
-12 -30 25 -11 161 27 194 15 13 18 21 9 26 -9 5 -9 13 0 33 19 40 30 10 18
-51z m3989 46 c6 -8 8 -17 4 -20 -7 -8 -33 11 -33 24 0 13 16 11 29 -4z
m-3634 -31 c13 -13 27 -36 31 -50 3 -14 10 -23 15 -20 5 3 1 16 -7 30 -9 13
-14 27 -11 31 9 8 47 -77 46 -102 0 -17 -2 -16 -11 5 -11 24 -11 24 -18 -14
-4 -22 -4 -53 1 -70 10 -33 3 -48 -11 -26 -8 13 -10 12 -10 -3 0 -15 -3 -16
-20 -7 -20 11 -20 10 -4 -29 24 -62 10 -73 -19 -15 -14 28 -51 84 -81 124 -30
41 -52 78 -48 84 3 6 5 19 4 29 -4 24 18 21 52 -8 29 -25 53 -34 41 -15 -3 6
1 7 9 4 11 -4 16 0 16 14 0 12 -4 24 -10 27 -13 8 -13 35 0 35 6 0 22 -11 35
-24z m3750 -38 c7 -8 4 -9 -10 -3 -11 4 -32 12 -47 17 -16 5 -28 14 -28 18 0
10 70 -17 85 -32z m-1835 2 c0 -16 -4 -30 -8 -30 -5 0 -7 14 -4 30 2 17 6 30
8 30 2 0 4 -13 4 -30z m1631 13 c13 -16 12 -17 -3 -4 -17 13 -22 21 -14 21 2
0 10 -8 17 -17z m94 -10 c11 -7 17 -13 14 -13 -9 0 -69 31 -69 35 0 6 33 -7
55 -22z m-4179 -15 c4 -7 4 -10 -1 -6 -4 4 -14 3 -22 -3 -8 -8 -13 -8 -13 -1
0 6 6 13 13 15 6 3 13 6 14 6 1 1 5 -5 9 -11z m4364 -24 c0 -16 -9 -18 -30 -4
-11 7 -11 10 -2 10 7 0 10 4 7 10 -3 6 1 7 9 4 9 -3 16 -12 16 -20z m-4298
-26 c-7 -7 -12 -8 -12 -2 0 14 12 26 19 19 2 -3 -1 -11 -7 -17z m4678 -8 c0
-5 -6 -10 -14 -10 -8 0 -18 5 -21 10 -3 6 3 10 14 10 12 0 21 -4 21 -10z m310
-20 c-13 -23 -30 -35 -30 -20 0 20 21 51 31 45 6 -4 5 -13 -1 -25z m-5005 -31
c-18 -51 -19 -83 -2 -110 9 -17 9 -23 0 -26 -9 -3 -10 -10 -3 -23 6 -11 6 -21
1 -24 -5 -4 -12 -25 -16 -48 -7 -42 -7 -42 -21 -17 -18 36 -31 134 -15 125 6
-4 11 -1 11 8 0 9 5 16 11 16 7 0 9 12 5 34 -4 22 -1 48 8 70 21 51 39 46 21
-5z m4704 17 c9 -10 9 -20 -1 -41 -10 -23 -10 -29 4 -39 19 -14 34 -101 24
-141 -6 -22 -10 -25 -21 -15 -18 15 -35 5 -35 -21 0 -19 -1 -19 -16 -5 -8 9
-12 20 -9 26 3 5 1 10 -5 10 -7 0 -14 -9 -17 -21 -4 -16 -8 -17 -14 -7 -9 14
-2 56 14 76 6 8 6 12 -2 12 -7 0 -9 5 -6 10 3 6 2 10 -4 10 -5 0 -12 -4 -16
-9 -7 -13 -67 -42 -73 -37 -7 8 27 38 36 32 4 -2 16 10 26 27 17 31 17 31 -1
16 -24 -21 -53 -31 -53 -19 0 6 7 10 16 10 11 0 14 6 9 20 -4 14 -2 20 8 20 8
0 22 9 33 21 16 17 16 22 4 30 -12 8 -11 9 5 7 15 -2 19 2 17 16 -3 13 1 17
12 13 8 -3 18 -2 21 3 9 14 31 12 44 -4z m159 -55 c2 -12 14 -26 28 -31 29
-11 30 -27 7 -60 -10 -14 -23 -36 -30 -50 l-11 -25 -2 30 c-1 29 -2 29 -12 8
-15 -31 -32 -29 -24 2 5 20 3 23 -10 18 -14 -5 -16 -2 -11 16 4 17 2 21 -9 17
-8 -3 -14 1 -14 9 0 8 6 12 13 9 8 -3 20 2 27 11 11 13 11 20 0 40 -7 13 -10
31 -6 40 6 16 9 16 29 2 12 -8 23 -24 25 -36z m182 29 c0 -5 -5 -10 -11 -10
-5 0 -7 5 -4 10 3 6 8 10 11 10 2 0 4 -4 4 -10z m-39 -47 c-9 -16 -10 -14 -11
12 0 21 3 26 11 18 8 -8 8 -16 0 -30z m-460 -156 c-10 -9 -11 -8 -5 6 3 10 9
15 12 12 3 -3 0 -11 -7 -18z m1314 -17 c4 -6 10 -8 15 -5 4 3 6 -4 3 -15 -3
-11 -8 -20 -12 -20 -12 0 -31 23 -31 37 0 15 16 17 25 3z m-5739 -25 c4 -8 10
-15 15 -15 5 0 9 7 9 15 0 20 23 19 42 -2 17 -19 30 -153 15 -153 -4 0 -5 -5
-2 -10 3 -6 3 -19 0 -31 -5 -15 -12 -18 -27 -13 -16 5 -19 3 -12 -7 6 -12 5
-12 -9 -1 -9 8 -25 33 -37 57 -12 24 -25 45 -30 47 -7 2 -16 94 -11 121 2 13
42 7 47 -8z m2148 -21 c21 -21 20 -29 -4 -31 -11 -1 -20 4 -20 13 0 8 -5 14
-11 14 -5 0 -7 5 -4 10 9 14 21 12 39 -6z m-2238 -37 c17 -10 20 -17 13 -35
-7 -18 -15 -23 -36 -20 -23 2 -29 8 -31 36 -4 36 14 42 54 19z m4161 -19 c12
-13 23 -32 25 -43 2 -16 -5 -21 -39 -29 -42 -9 -53 -19 -33 -31 6 -4 8 -11 5
-16 -4 -5 -19 -2 -37 7 -29 15 -30 18 -26 66 3 28 12 54 19 59 25 16 65 9 86
-13z m1858 -8 c-3 -5 -10 -10 -16 -10 -5 0 -9 5 -9 10 0 6 7 10 16 10 8 0 12
-4 9 -10z m-5984 -82 c24 -21 46 -60 51 -95 2 -18 3 -33 0 -33 -8 0 -41 45
-42 57 0 6 -9 15 -20 18 -11 3 -20 12 -21 18 0 7 -2 20 -4 30 -4 20 15 22 36
5z m2122 -55 c-7 -2 -19 -2 -25 0 -7 3 -2 5 12 5 14 0 19 -2 13 -5z m-8 -23
c3 -5 1 -10 -4 -10 -6 0 -11 5 -11 10 0 6 2 10 4 10 3 0 8 -4 11 -10z m50
-499 c-3 -6 -11 -11 -17 -11 -6 0 -6 6 2 15 14 17 26 13 15 -4z m3518 -293
c-16 -18 -43 -47 -58 -65 -23 -27 -29 -30 -41 -18 -20 20 -18 27 23 60 76 62
128 77 76 23z m-358 -168 c2 -25 2 -25 -20 0 -18 20 -18 21 0 14 14 -6 16 -4
10 7 -4 8 -4 11 0 6 5 -4 9 -16 10 -27z"/>
<path d="M4877 5468 c-6 -21 -2 -36 7 -27 10 11 16 49 8 49 -5 0 -12 -10 -15
-22z"/>
<path d="M4577 5221 c-17 -6 -17 -8 1 -25 13 -11 22 -14 27 -7 3 6 1 11 -5 11
-7 0 -10 7 -6 15 3 8 4 15 3 14 -1 0 -10 -4 -20 -8z"/>
<path d="M3580 4533 c5 -2 8 -9 5 -13 -8 -13 71 -64 85 -55 15 9 1 28 -16 21
-8 -3 -13 0 -11 6 1 7 -9 12 -23 12 -15 1 -25 7 -25 15 0 8 -6 15 -13 17 -7 1
-8 0 -2 -3z"/>
<path d="M1592 4489 c2 -6 8 -10 13 -10 5 0 11 4 13 10 2 6 -4 11 -13 11 -9 0
-15 -5 -13 -11z"/>
<path d="M1666 4467 c-21 -12 -39 -26 -38 -32 1 -14 32 -19 32 -5 0 6 12 22
28 35 34 30 28 31 -22 2z"/>
<path d="M6220 4235 c-7 -9 -8 -15 -2 -15 5 0 12 7 16 15 3 8 4 15 2 15 -2 0
-9 -7 -16 -15z"/>
<path d="M3555 4400 c-3 -5 -2 -10 4 -10 5 0 13 5 16 10 3 6 2 10 -4 10 -5 0
-13 -4 -16 -10z"/>
<path d="M3905 4140 c-3 -5 -2 -10 4 -10 5 0 13 5 16 10 3 6 2 10 -4 10 -5 0
-13 -4 -16 -10z"/>
<path d="M4870 2750 c0 -5 5 -10 10 -10 6 0 10 5 10 10 0 6 -4 10 -10 10 -5 0
-10 -4 -10 -10z"/>
<path d="M4896 2637 c3 -10 9 -15 12 -12 3 3 0 11 -7 18 -10 9 -11 8 -5 -6z"/>
<path d="M5440 2730 c-13 -8 -12 -10 3 -10 9 0 17 5 17 10 0 12 -1 12 -20 0z"/>
<path d="M5820 2000 c-9 -6 -10 -10 -3 -10 6 0 15 5 18 10 8 12 4 12 -15 0z"/>
<path d="M5790 1969 c0 -5 5 -7 10 -4 6 3 10 8 10 11 0 2 -4 4 -10 4 -5 0 -10
-5 -10 -11z"/>
<path d="M4851 1624 c0 -11 3 -14 6 -6 3 7 2 16 -1 19 -3 4 -6 -2 -5 -13z"/>
<path d="M3005 6454 c-20 -16 -20 -16 2 -10 24 7 213 -60 213 -76 0 -5 -4 -6
-10 -3 -5 3 -10 2 -10 -3 0 -5 13 -15 29 -21 15 -7 43 -27 62 -44 19 -18 55
-48 82 -66 26 -19 47 -37 47 -41 0 -4 18 -18 40 -33 45 -29 53 -22 15 13 -17
16 -23 30 -19 42 4 13 -7 32 -35 63 -23 25 -41 53 -41 64 0 10 -7 24 -15 31
-8 7 -15 18 -15 25 0 26 -119 59 -255 70 -56 4 -74 2 -90 -11z"/>
<path d="M2100 6301 c0 -5 5 -13 10 -16 6 -3 10 -2 10 4 0 5 -4 13 -10 16 -5
3 -10 2 -10 -4z"/>
<path d="M5113 6240 c-6 -14 -13 -41 -17 -60 l-6 -35 21 43 c11 24 18 51 16
60 -3 13 -6 12 -14 -8z"/>
<path d="M3725 6239 c-4 -6 -5 -12 -2 -15 2 -3 7 2 10 11 7 17 1 20 -8 4z"/>
<path d="M2828 6213 c6 -2 18 -2 25 0 6 3 1 5 -13 5 -14 0 -19 -2 -12 -5z"/>
<path d="M3696 6192 c-2 -4 4 -13 15 -20 21 -13 22 -12 13 12 -7 17 -20 21
-28 8z"/>
<path d="M1556 6127 c3 -10 9 -15 12 -12 3 3 0 11 -7 18 -10 9 -11 8 -5 -6z"/>
<path d="M1567 6077 c-2 -7 7 -26 20 -42 18 -21 23 -24 19 -10 -6 16 -5 18 5
8 22 -22 30 -14 13 12 -22 33 -50 49 -57 32z"/>
<path d="M3720 6066 c0 -24 16 -43 26 -33 8 7 -7 57 -17 57 -5 0 -9 -11 -9
-24z"/>
<path d="M2475 6060 c-3 -5 3 -10 14 -10 11 0 23 5 26 10 3 6 -3 10 -14 10
-11 0 -23 -4 -26 -10z"/>
<path d="M1681 5940 c17 -33 36 -60 40 -60 5 0 9 2 9 5 0 8 -72 115 -77 115
-2 0 10 -27 28 -60z"/>
<path d="M3735 5931 c-3 -5 -1 -12 5 -16 5 -3 10 1 10 9 0 18 -6 21 -15 7z"/>
<path d="M5408 5919 c-32 -16 -38 -24 -38 -53 0 -40 -19 -98 -30 -91 -4 3 -6
15 -3 28 5 22 5 22 -10 2 -8 -11 -13 -23 -11 -27 3 -4 -5 -12 -16 -18 -27 -14
-25 -28 5 -36 18 -4 33 1 56 20 17 14 39 26 49 26 29 0 33 17 6 24 -22 5 -24
10 -19 44 5 36 54 98 67 85 3 -4 6 -1 6 5 0 17 -19 14 -62 -9z"/>
<path d="M2974 5889 c-3 -5 6 -9 20 -9 31 0 34 6 6 13 -11 3 -23 1 -26 -4z"/>
<path d="M3762 5755 c0 -16 2 -22 5 -12 2 9 2 23 0 30 -3 6 -5 -1 -5 -18z"/>
<path d="M2493 5473 c9 -2 25 -2 35 0 9 3 1 5 -18 5 -19 0 -27 -2 -17 -5z"/>
<path d="M2429 5439 l-24 -20 28 17 c15 9 27 18 27 20 0 8 -8 4 -31 -17z"/>
<path d="M2610 5399 c0 -5 5 -7 10 -4 6 3 10 8 10 11 0 2 -4 4 -10 4 -5 0 -10
-5 -10 -11z"/>
<path d="M2640 5378 c8 -8 21 -20 29 -28 12 -12 11 -10 0 9 -9 14 -22 27 -30
29 -11 3 -11 1 1 -10z"/>
<path d="M1224 5298 c-4 -6 -3 -8 4 -5 5 4 18 4 27 1 9 -4 12 -10 7 -13 -6 -3
11 -6 36 -7 46 -1 47 -1 17 11 -52 21 -83 26 -91 13z"/>
<path d="M1464 5222 c4 -3 -4 -12 -16 -19 l-23 -12 23 -1 c13 0 21 -4 18 -9
-3 -5 -14 -7 -25 -4 -20 5 -37 -22 -20 -33 10 -6 79 52 79 67 0 4 -9 9 -21 12
-12 3 -18 3 -15 -1z"/>
<path d="M3840 5179 c0 -5 5 -7 10 -4 6 3 10 8 10 11 0 2 -4 4 -10 4 -5 0 -10
-5 -10 -11z"/>
<path d="M5956 4498 c-23 -32 -20 -45 4 -18 19 21 26 40 16 40 -3 0 -12 -10
-20 -22z"/>
<path d="M5945 4439 c-4 -6 -5 -12 -2 -15 2 -3 7 2 10 11 7 17 1 20 -8 4z"/>
<path d="M7065 3890 c-3 -5 -1 -10 4 -10 6 0 11 5 11 10 0 6 -2 10 -4 10 -3 0
-8 -4 -11 -10z"/>
<path d="M6538 3363 c-2 -10 -1 -38 3 -63 6 -43 6 -43 7 18 2 61 -2 79 -10 45z"/>
<path d="M7332 3300 c0 -19 2 -27 5 -17 2 9 2 25 0 35 -3 9 -5 1 -5 -18z"/>
<path d="M2797 2963 c-4 -3 -7 -9 -7 -13 0 -12 77 -42 96 -38 16 3 14 6 -11
24 -36 25 -69 37 -78 27z"/>
<path d="M1575 2939 c10 -15 -24 -49 -49 -50 -21 0 -21 -1 -1 -8 14 -6 25 -3
38 10 10 11 22 17 28 14 5 -4 9 5 9 19 0 17 -6 26 -16 26 -8 0 -12 -5 -9 -11z"/>
<path d="M891 2838 c-34 -28 -61 -52 -61 -54 0 -10 65 27 96 54 20 18 40 32
45 32 5 0 9 5 9 10 0 22 -31 7 -89 -42z"/>
<path d="M1030 2875 c-7 -8 -8 -15 -2 -15 5 0 15 7 22 15 7 8 8 15 2 15 -5 0
-15 -7 -22 -15z"/>
<path d="M2066 2881 c-6 -9 35 -24 43 -16 2 3 -2 5 -10 5 -11 0 -11 2 1 10 12
8 11 10 -7 10 -12 0 -24 -4 -27 -9z"/>
<path d="M758 2873 c7 -3 16 -2 19 1 4 3 -2 6 -13 5 -11 0 -14 -3 -6 -6z"/>
<path d="M1357 2863 c-13 -12 -7 -19 16 -20 12 0 16 1 9 4 -6 3 -10 9 -6 14 6
10 -9 12 -19 2z"/>
<path d="M1420 2860 c-10 -6 -11 -10 -2 -10 6 0 12 -4 12 -10 0 -5 -7 -10 -16
-10 -8 0 -12 -5 -9 -11 5 -7 14 -4 26 7 13 12 16 20 8 25 -8 5 -7 8 2 12 8 3
10 6 4 6 -5 0 -17 -4 -25 -9z"/>
<path d="M1590 2850 c0 -5 5 -10 11 -10 5 0 7 5 4 10 -3 6 -8 10 -11 10 -2 0
-4 -4 -4 -10z"/>
<path d="M1135 2730 c3 -5 10 -10 16 -10 5 0 9 5 9 10 0 6 -7 10 -16 10 -8 0
-12 -4 -9 -10z"/>
<path d="M960 2530 c0 -8 5 -22 10 -30 9 -13 10 -13 10 0 0 8 -5 22 -10 30 -9
13 -10 13 -10 0z"/>
<path d="M1208 2512 c-37 -5 -36 -22 2 -22 17 0 33 -7 39 -17 9 -16 10 -16 11
3 0 28 -18 40 -52 36z"/>
<path d="M1192 2462 c-9 -6 -5 -12 15 -20 24 -11 26 -10 11 1 -10 8 -15 17
-11 20 9 9 1 8 -15 -1z"/>
<path d="M1271 2444 c0 -11 3 -14 6 -6 3 7 2 16 -1 19 -3 4 -6 -2 -5 -13z"/>
<path d="M6033 1952 c-32 -23 -52 -45 -53 -56 0 -16 6 -13 33 16 18 19 48 45
67 57 19 11 28 21 20 20 -8 0 -38 -17 -67 -37z"/>
<path d="M5980 1733 c8 -3 19 -11 23 -17 6 -7 7 -6 4 4 -2 8 -12 16 -23 17
-13 2 -15 1 -4 -4z"/>
<path d="M7848 1523 c-17 -19 -58 -90 -58 -99 0 -3 6 -4 13 -1 6 2 20 0 30 -5
13 -7 25 -2 48 21 26 26 33 29 50 18 26 -16 24 -30 -3 -21 -20 6 -21 5 -9 -10
11 -14 11 -16 -1 -16 -8 0 -20 6 -27 13 -11 10 -13 10 -7 0 7 -12 -7 -17 -44
-15 -8 0 -23 -4 -33 -10 -15 -8 -18 -7 -12 3 5 7 4 10 -3 5 -28 -17 -42 -103
-46 -297 l-4 -197 -35 -53 c-40 -62 -64 -91 -165 -201 -56 -61 -71 -84 -67
-99 6 -18 5 -19 -14 -7 -32 20 -71 -16 -96 -88 -24 -69 -60 -127 -103 -168
-17 -16 -41 -54 -53 -85 -12 -31 -26 -60 -31 -66 -4 -5 -8 -18 -8 -29 0 -11
-10 -30 -21 -42 l-21 -23 36 -6 c26 -5 48 -2 81 14 25 12 56 21 69 21 13 0 49
11 81 26 79 35 100 30 100 -21 0 -34 -3 -40 -22 -43 -13 -2 -23 -7 -23 -13 0
-5 -13 -7 -30 -5 -20 2 -30 -1 -30 -10 0 -11 39 -14 211 -14 190 0 213 2 225
18 13 16 13 16 14 0 0 -16 13 -18 130 -18 l130 0 0 729 0 729 -47 16 c-25 9
-53 22 -62 30 -20 16 -77 36 -106 36 -12 0 -29 -8 -37 -17z m29 -29 c-9 -9
-28 6 -21 18 4 6 10 6 17 -1 6 -6 8 -13 4 -17z m-27 -14 c0 -5 -5 -10 -11 -10
-5 0 -7 5 -4 10 3 6 8 10 11 10 2 0 4 -4 4 -10z m-80 -908 c0 -5 -8 -16 -18
-25 -16 -15 -18 -15 -18 2 0 12 5 17 15 13 9 -3 12 -1 7 6 -4 7 -2 12 3 12 6
0 11 -4 11 -8z m-268 -148 c-4 -22 -6 -24 -14 -10 -9 16 -3 36 11 36 5 0 6
-12 3 -26z m270 -210 c-13 -9 -31 -13 -43 -9 -29 9 -6 25 36 25 l29 0 -22 -16z
m-98 -20 c28 -11 18 -21 -26 -28 -23 -4 -45 -11 -48 -15 -7 -11 -70 -22 -70
-12 0 4 17 15 38 23 20 9 48 20 62 26 14 6 26 11 27 11 1 1 8 -2 17 -5z m371
-174 c-3 -5 -14 -10 -23 -10 -15 0 -15 2 -2 10 20 13 33 13 25 0z"/>
<path d="M6410 1520 c0 -5 5 -10 10 -10 6 0 10 5 10 10 0 6 -4 10 -10 10 -5 0
-10 -4 -10 -10z"/>
<path d="M6495 1433 c-16 -2 -37 -7 -45 -10 -8 -3 -18 -7 -22 -7 -9 -1 -11
-12 -5 -29 3 -9 13 -9 43 2 41 15 96 52 73 50 -8 -1 -27 -4 -44 -6z"/>
<path d="M6900 946 c0 -4 9 -42 19 -84 22 -90 46 -294 37 -317 -3 -9 -2 -14 2
-11 11 6 12 -436 2 -491 l-7 -43 55 0 55 0 -7 123 c-7 131 -29 358 -45 472
-10 76 -111 393 -111 351z m97 -653 c-3 -10 -5 -2 -5 17 0 19 2 27 5 18 2 -10
2 -26 0 -35z"/>
<path d="M5665 380 c-3 -6 1 -7 9 -4 18 7 21 14 7 14 -6 0 -13 -4 -16 -10z"/>
<path d="M6599 204 c-6 -7 -20 -14 -32 -16 -20 -3 -19 -5 10 -21 42 -22 80
-22 92 2 12 21 5 31 -21 31 -11 0 -17 4 -14 8 8 14 -23 10 -35 -4z"/>
<path d="M7095 10 c-18 -8 -17 -9 7 -9 15 -1 30 4 33 9 7 12 -12 12 -40 0z"/>
<path d="M6583 3 c9 -2 23 -2 30 0 6 3 -1 5 -18 5 -16 0 -22 -2 -12 -5z"/>
</g>
</svg>
